<?xml version="1.0" encoding="UTF-8" standalone="no"?>
<!DOCTYPE svg PUBLIC "-//W3C//DTD SVG 1.1//EN" "http://www.w3.org/Graphics/SVG/1.1/DTD/svg11.dtd">
<svg width="100%" height="100%" viewBox="0 0 800 800" version="1.1" xmlns="http://www.w3.org/2000/svg" xmlns:xlink="http://www.w3.org/1999/xlink" xml:space="preserve" xmlns:serif="http://www.serif.com/" style="fill-rule:evenodd;clip-rule:evenodd;stroke-linejoin:round;stroke-miterlimit:1.5;">
    <g transform="matrix(1,0,0,1,-100,-100)">
        <rect id="_1000" serif:id="1000" x="0" y="0" width="1000" height="1000" style="fill:none;"/>
        <g id="_10001" serif:id="1000">
            <g transform="matrix(1,0,0,1,188.5,99.5)">
                <g id="outermost-circle" serif:id="outermost circle" transform="matrix(2.787456,0,0,2.693603,-556.792683,-678.287879)">
                    <ellipse cx="311.5" cy="400.5" rx="143.5" ry="148.5" style="fill:rgb(235,235,235);fill-opacity:0;"/>
                    <path d="M311.5,252C390.7,252 455,318.541 455,400.5C455,482.459 390.7,549 311.5,549C232.3,549 168,482.459 168,400.5C168,318.541 232.3,252 311.5,252ZM311.5,253.547C233.125,253.547 169.495,319.394 169.495,400.5C169.495,481.606 233.125,547.453 311.5,547.453C389.875,547.453 453.505,481.606 453.505,400.5C453.505,319.394 389.875,253.547 311.5,253.547Z"/>
                </g>
                <g id="second-circle" serif:id="second circle" transform="matrix(2.71777,0,0,2.626263,-535.085366,-651.318182)">
                    <ellipse cx="311.5" cy="400.5" rx="143.5" ry="148.5" style="fill:rgb(235,235,235);fill-opacity:0;"/>
                    <path d="M311.5,252C390.7,252 455,318.541 455,400.5C455,482.459 390.7,549 311.5,549C232.3,549 168,482.459 168,400.5C168,318.541 232.3,252 311.5,252ZM311.5,255.173C233.992,255.173 171.066,320.292 171.066,400.5C171.066,480.708 233.992,545.827 311.5,545.827C389.008,545.827 451.934,480.708 451.934,400.5C451.934,320.292 389.008,255.173 311.5,255.173Z"/>
                </g>
                <g transform="matrix(0.969125,0,0,0.895521,7.908222,45.539009)">
                    <g transform="matrix(1.525151,0,0,3.124616,-325.663044,-1942.0069)">
                        <path d="M285.644,748.197C288.877,738.134 295.342,718.009 302.955,723.045C310.569,728.081 320.898,782.716 331.324,778.413C341.749,774.11 353.617,692.23 365.51,697.227C377.403,702.225 390.164,809.859 402.681,808.399C415.199,806.938 427.573,692.567 440.615,688.465C453.658,684.363 468.724,778.392 480.937,783.786C493.149,789.181 504.355,722.989 513.89,720.833C523.425,718.678 531.759,766.239 538.145,770.853C544.532,775.467 552.209,748.517 552.209,748.517" style="fill:none;stroke:black;stroke-width:2.42px;"/>
                    </g>
                    <g transform="matrix(1.525151,0,0,0.929945,-325.663044,-299.57281)">
                        <path d="M287.481,750.055L283.808,746.338C285.844,739.999 289.139,729.906 293.146,723.948C296.31,719.244 299.907,717.024 303.694,719.529C305.333,720.613 307.151,723.473 308.983,727.646C312.575,735.829 316.572,749.337 320.766,760.098C322.626,764.872 324.513,769.089 326.44,771.886C327.913,774.026 329.351,775.375 330.845,774.758C331.762,774.38 332.642,773.051 333.587,771.244C334.796,768.933 336.015,765.832 337.256,762.227C341.212,750.731 345.307,734.312 349.482,720.62C352.416,710.999 355.424,702.7 358.409,698.016C360.912,694.087 363.484,692.52 365.997,693.576C368.513,694.633 371.236,699.278 373.81,706.7C378.963,721.555 384.251,747.87 389.558,769.859C392.478,781.96 395.385,792.721 398.313,799.252C399.158,801.137 399.99,802.642 400.834,803.627C401.41,804.299 401.969,804.721 402.543,804.654C403.364,804.558 404.131,803.552 404.951,802.121C406.091,800.13 407.219,797.297 408.359,793.856C412.06,782.687 415.75,765.44 419.476,748.086C423.95,727.247 428.489,706.27 433.064,694.829C435.4,688.987 437.877,685.515 440.246,684.77C442.899,683.936 445.697,685.947 448.455,690.527C451.834,696.135 455.318,705.786 458.776,716.875C463.752,732.837 468.734,751.826 473.503,765.157C475.302,770.186 477.054,774.383 478.774,777.181C479.692,778.675 480.566,779.756 481.447,780.145C483.272,780.951 485.007,779.322 486.767,776.661C490.164,771.526 493.428,762.501 496.61,753.194C499.975,743.353 503.228,733.178 506.329,726.367C508.795,720.953 511.312,717.633 513.623,717.111C515.645,716.654 517.648,717.749 519.584,720.156C521.955,723.104 524.277,728.172 526.472,734.08C529.519,742.279 532.372,752.122 534.995,759.299C536.445,763.267 537.688,766.447 538.96,767.39C539.682,767.926 540.428,767.631 541.169,767.02C542.267,766.113 543.333,764.511 544.338,762.674C547.728,756.473 550.331,747.508 550.331,747.508L554.087,750.955C554.087,750.955 550.043,764.698 545.296,771.235C542.72,774.782 539.92,776.235 537.331,774.316C535.923,773.273 534.363,770.675 532.806,766.902C529.823,759.673 526.513,747.821 522.942,738.212C521.367,733.973 519.751,730.186 518.07,727.58C516.784,725.587 515.515,724.249 514.157,724.556C513.37,724.734 512.605,725.668 511.786,726.953C510.694,728.667 509.588,731.025 508.454,733.786C504.762,742.778 500.878,755.838 496.827,766.655C493.936,774.374 490.928,780.965 487.891,784.556C485.445,787.449 482.942,788.539 480.426,787.428C477.883,786.304 475.12,782.093 472.396,775.585C466.858,762.354 460.952,739.357 455.076,720.509C451.87,710.228 448.699,701.208 445.567,696.008C443.982,693.378 442.508,691.68 440.984,692.16C440.166,692.417 439.388,693.401 438.577,694.789C437.52,696.601 436.477,699.089 435.427,702.08C430.089,717.296 424.866,744.78 419.651,768.116C416.033,784.304 412.381,798.536 408.774,805.852C406.819,809.816 404.778,811.915 402.82,812.143C400.272,812.44 397.562,809.63 395.004,803.925C391.9,797.001 388.767,785.643 385.671,772.814C380.449,751.175 375.28,725.252 370.209,710.634C369.209,707.751 368.222,705.334 367.233,703.546C366.479,702.184 365.767,701.192 365.023,700.879C363.728,700.334 362.5,701.613 361.209,703.638C358.507,707.879 355.857,715.482 353.201,724.192C348.266,740.376 343.42,760.299 338.802,771.699C336.461,777.478 334.042,781.144 331.803,782.068C329.598,782.978 327.378,782.044 325.195,779.554C322.526,776.511 319.853,770.95 317.288,764.367C313.712,755.192 310.285,744.004 307.129,735.869C305.338,731.255 303.772,727.589 302.217,726.561C299.912,725.036 297.787,726.838 295.861,729.701C292.235,735.093 289.324,744.319 287.481,750.055Z"/>
                    </g>
                    <g transform="matrix(2.015649,0.01875,-0.01601,2.015649,-512.278833,-1117.106882)">
                        <path d="M306.943,749.164L306.924,746.856L524.057,744.836L524.076,747.144L306.943,749.164Z"/>
                    </g>
                </g>
            </g>
            <g id="五反田音響波動技術研究所">
                <g id="五" transform="matrix(0.707107,-0.707107,0.707107,0.707107,-248.654513,450.106068)">
                    <g transform="matrix(100,0,0,100,443.598345,305.259021)">
                        <path d="M0.282,-0.011C0.197,-0.011 0.092,-0.013 0.036,-0.019L0.045,0.015C0.097,0.009 0.203,0.007 0.29,0.007L0.939,0.007C0.968,0.007 0.974,0.004 0.974,-0.009C0.974,-0.019 0.964,-0.033 0.924,-0.075C0.896,-0.105 0.881,-0.116 0.871,-0.116C0.858,-0.116 0.846,-0.098 0.793,-0.011L0.766,-0.011L0.766,-0.358C0.792,-0.369 0.799,-0.379 0.799,-0.389C0.799,-0.4 0.787,-0.413 0.748,-0.445C0.709,-0.477 0.696,-0.481 0.686,-0.481C0.678,-0.481 0.665,-0.471 0.627,-0.422L0.469,-0.422L0.508,-0.684C0.527,-0.69 0.534,-0.697 0.536,-0.708L0.873,-0.708C0.892,-0.708 0.898,-0.711 0.898,-0.724C0.898,-0.734 0.892,-0.744 0.84,-0.785C0.794,-0.822 0.785,-0.827 0.773,-0.827C0.764,-0.827 0.749,-0.812 0.683,-0.726L0.337,-0.726C0.25,-0.726 0.141,-0.728 0.083,-0.734L0.092,-0.7C0.144,-0.706 0.25,-0.708 0.337,-0.708L0.384,-0.708L0.342,-0.422L0.325,-0.422C0.24,-0.422 0.188,-0.424 0.11,-0.43L0.12,-0.396C0.192,-0.402 0.24,-0.404 0.325,-0.404L0.339,-0.404L0.282,-0.011ZM0.408,-0.011L0.466,-0.404L0.64,-0.404L0.64,-0.011L0.408,-0.011Z" style="fill-rule:nonzero;"/>
                    </g>
                </g>
                <g transform="matrix(0.965926,-0.258819,0.258819,0.965926,-123.66568,81.497405)">
                    <g transform="matrix(100,0,0,100,443.598345,305.259021)">
                        <path d="M0.314,-0.758C0.301,-0.769 0.263,-0.784 0.165,-0.809L0.158,-0.802C0.169,-0.778 0.171,-0.758 0.171,-0.718L0.171,-0.535C0.171,-0.155 0.119,-0.041 0.027,0.059L0.035,0.066C0.207,-0.047 0.289,-0.193 0.29,-0.522L0.375,-0.522C0.389,-0.403 0.417,-0.281 0.478,-0.177C0.388,-0.067 0.271,0.012 0.12,0.07L0.121,0.08C0.292,0.05 0.434,-0.008 0.544,-0.1C0.617,-0.022 0.694,0.024 0.792,0.06C0.813,0.068 0.839,0.076 0.85,0.076C0.86,0.076 0.868,0.073 0.877,0.053C0.902,-0 0.937,-0.036 0.98,-0.056L0.98,-0.067C0.836,-0.078 0.713,-0.109 0.614,-0.178C0.682,-0.255 0.738,-0.351 0.782,-0.464C0.825,-0.47 0.838,-0.478 0.838,-0.49C0.838,-0.505 0.833,-0.513 0.786,-0.554C0.734,-0.599 0.72,-0.604 0.712,-0.604C0.7,-0.604 0.682,-0.59 0.64,-0.54L0.29,-0.54L0.29,-0.722C0.307,-0.728 0.315,-0.734 0.318,-0.74L0.924,-0.74C0.94,-0.74 0.945,-0.743 0.945,-0.752C0.945,-0.761 0.938,-0.771 0.896,-0.806C0.854,-0.841 0.842,-0.847 0.833,-0.847C0.824,-0.847 0.805,-0.824 0.757,-0.758L0.314,-0.758ZM0.65,-0.522C0.619,-0.417 0.58,-0.327 0.531,-0.25C0.46,-0.327 0.417,-0.423 0.386,-0.522L0.65,-0.522Z" style="fill-rule:nonzero;"/>
                    </g>
                </g>
                <g transform="matrix(0.965926,0.258819,-0.258819,0.965926,169.140975,-174.266719)">
                    <g transform="matrix(100,0,0,100,443.598345,305.259021)">
                        <path d="M0.225,-0.05L0.766,-0.05L0.766,0.01C0.766,0.04 0.773,0.044 0.809,0.044C0.865,0.044 0.905,0.029 0.905,-0.025L0.895,-0.461L0.895,-0.649C0.925,-0.663 0.933,-0.672 0.933,-0.681C0.933,-0.693 0.923,-0.703 0.876,-0.742C0.829,-0.781 0.818,-0.785 0.809,-0.785C0.802,-0.785 0.79,-0.776 0.746,-0.727L0.248,-0.727C0.233,-0.738 0.191,-0.753 0.098,-0.778L0.091,-0.771C0.101,-0.747 0.103,-0.717 0.103,-0.679L0.103,-0.458L0.096,0.027C0.096,0.057 0.101,0.061 0.135,0.061C0.195,0.061 0.225,0.038 0.225,0.004L0.225,-0.05ZM0.553,-0.404L0.553,-0.684C0.573,-0.69 0.578,-0.697 0.579,-0.709L0.766,-0.709L0.766,-0.404L0.553,-0.404ZM0.553,-0.386L0.766,-0.386L0.766,-0.068L0.553,-0.068L0.553,-0.386ZM0.428,-0.068L0.225,-0.068L0.225,-0.386L0.428,-0.386L0.428,-0.068ZM0.428,-0.404L0.225,-0.404L0.225,-0.691C0.243,-0.698 0.25,-0.703 0.253,-0.709L0.428,-0.709L0.428,-0.404Z" style="fill-rule:nonzero;"/>
                    </g>
                </g>
                <g id="音" transform="matrix(0.707107,0.707107,-0.707107,0.707107,550.601039,-249.36162)">
                    <g transform="matrix(100,0,0,100,443.598345,305.259021)">
                        <path d="M0.597,-0.689C0.598,-0.679 0.597,-0.666 0.594,-0.648C0.589,-0.615 0.574,-0.544 0.555,-0.476L0.394,-0.476C0.418,-0.486 0.435,-0.509 0.435,-0.544C0.435,-0.603 0.393,-0.661 0.264,-0.683L0.259,-0.676C0.297,-0.651 0.309,-0.606 0.31,-0.54C0.311,-0.505 0.324,-0.485 0.34,-0.476L0.283,-0.476C0.177,-0.476 0.087,-0.478 0.029,-0.484L0.038,-0.45C0.09,-0.456 0.18,-0.458 0.283,-0.458L0.948,-0.458C0.964,-0.458 0.969,-0.461 0.969,-0.47C0.969,-0.479 0.962,-0.489 0.92,-0.524C0.878,-0.559 0.866,-0.565 0.857,-0.565C0.848,-0.565 0.829,-0.542 0.781,-0.476L0.613,-0.476C0.655,-0.521 0.69,-0.567 0.713,-0.602C0.751,-0.604 0.763,-0.609 0.763,-0.626C0.763,-0.638 0.745,-0.651 0.623,-0.689L0.896,-0.689C0.912,-0.689 0.917,-0.692 0.917,-0.701C0.917,-0.71 0.91,-0.72 0.868,-0.755C0.826,-0.79 0.814,-0.796 0.805,-0.796C0.796,-0.796 0.777,-0.773 0.729,-0.707L0.557,-0.707L0.557,-0.775C0.59,-0.784 0.597,-0.791 0.597,-0.802C0.597,-0.821 0.563,-0.83 0.428,-0.847L0.421,-0.84C0.431,-0.819 0.433,-0.795 0.433,-0.759L0.433,-0.707L0.327,-0.707C0.221,-0.707 0.131,-0.709 0.073,-0.715L0.082,-0.681C0.134,-0.687 0.224,-0.689 0.327,-0.689L0.597,-0.689ZM0.343,0.017L0.649,0.017L0.649,0.049C0.649,0.079 0.653,0.084 0.689,0.084C0.743,0.084 0.783,0.062 0.783,0.024L0.774,-0.223L0.774,-0.29C0.802,-0.303 0.811,-0.311 0.811,-0.322C0.811,-0.333 0.802,-0.345 0.759,-0.378C0.719,-0.408 0.709,-0.414 0.696,-0.414C0.687,-0.414 0.676,-0.407 0.637,-0.358L0.363,-0.358C0.352,-0.369 0.316,-0.385 0.221,-0.409L0.214,-0.402C0.222,-0.382 0.225,-0.356 0.225,-0.309L0.225,-0.234L0.217,0.055C0.217,0.087 0.224,0.091 0.25,0.091C0.32,0.091 0.343,0.07 0.343,0.035L0.343,0.017ZM0.343,-0.191L0.343,-0.325C0.357,-0.33 0.364,-0.334 0.366,-0.34L0.649,-0.34L0.649,-0.191L0.343,-0.191ZM0.343,-0.173L0.649,-0.173L0.649,-0.001L0.343,-0.001L0.343,-0.173Z" style="fill-rule:nonzero;"/>
                    </g>
                </g>
                <g transform="matrix(0.258819,0.965926,-0.965926,0.258819,918.502595,-123.66568)">
                    <g transform="matrix(100,0,0,100,443.598345,305.259021)">
                        <path d="M0.256,-0.774C0.256,-0.762 0.251,-0.745 0.243,-0.727C0.23,-0.698 0.214,-0.669 0.197,-0.642L0.197,-0.648C0.197,-0.669 0.183,-0.692 0.155,-0.71C0.181,-0.73 0.203,-0.75 0.227,-0.778C0.251,-0.778 0.261,-0.784 0.261,-0.793C0.261,-0.806 0.238,-0.818 0.151,-0.854L0.144,-0.848C0.145,-0.834 0.142,-0.819 0.137,-0.801C0.129,-0.773 0.123,-0.75 0.116,-0.729C0.099,-0.734 0.08,-0.739 0.057,-0.741L0.051,-0.733C0.087,-0.714 0.103,-0.677 0.107,-0.638C0.111,-0.601 0.129,-0.595 0.148,-0.595C0.155,-0.595 0.161,-0.596 0.167,-0.599C0.153,-0.58 0.137,-0.562 0.121,-0.545C0.095,-0.543 0.073,-0.542 0.055,-0.542C0.048,-0.542 0.043,-0.542 0.033,-0.543L0.029,-0.536C0.04,-0.505 0.047,-0.481 0.057,-0.459C0.061,-0.45 0.066,-0.448 0.072,-0.448C0.076,-0.448 0.081,-0.45 0.093,-0.455C0.135,-0.472 0.186,-0.493 0.242,-0.523C0.194,-0.428 0.112,-0.338 0.027,-0.289L0.031,-0.281C0.153,-0.323 0.237,-0.372 0.309,-0.468C0.322,-0.436 0.335,-0.407 0.345,-0.389C0.35,-0.38 0.354,-0.378 0.36,-0.378C0.364,-0.378 0.369,-0.38 0.381,-0.385C0.399,-0.392 0.423,-0.402 0.45,-0.413C0.453,-0.403 0.453,-0.39 0.453,-0.373L0.453,-0.328L0.416,-0.328C0.31,-0.328 0.22,-0.33 0.162,-0.336L0.171,-0.302C0.204,-0.306 0.253,-0.308 0.311,-0.309C0.325,-0.299 0.33,-0.285 0.336,-0.248C0.338,-0.236 0.341,-0.228 0.347,-0.222L0.283,-0.222C0.177,-0.222 0.087,-0.224 0.029,-0.23L0.038,-0.196C0.09,-0.202 0.18,-0.204 0.283,-0.204L0.951,-0.204C0.967,-0.204 0.972,-0.207 0.972,-0.216C0.972,-0.224 0.965,-0.233 0.923,-0.264C0.881,-0.296 0.869,-0.301 0.86,-0.301C0.851,-0.301 0.832,-0.281 0.784,-0.222L0.64,-0.222C0.656,-0.233 0.671,-0.243 0.689,-0.257C0.714,-0.261 0.722,-0.264 0.722,-0.276C0.722,-0.283 0.709,-0.293 0.651,-0.31L0.858,-0.31C0.874,-0.31 0.879,-0.313 0.879,-0.322C0.879,-0.33 0.873,-0.333 0.834,-0.364C0.801,-0.39 0.792,-0.394 0.784,-0.394C0.776,-0.394 0.766,-0.381 0.721,-0.328L0.563,-0.328L0.563,-0.369C0.589,-0.377 0.598,-0.381 0.598,-0.391C0.598,-0.403 0.581,-0.412 0.482,-0.427C0.511,-0.44 0.539,-0.452 0.567,-0.467C0.57,-0.458 0.573,-0.449 0.575,-0.439C0.581,-0.411 0.596,-0.401 0.615,-0.401C0.639,-0.401 0.665,-0.413 0.665,-0.454C0.665,-0.496 0.624,-0.546 0.518,-0.553L0.512,-0.545C0.529,-0.534 0.545,-0.516 0.557,-0.492C0.525,-0.489 0.494,-0.485 0.462,-0.482L0.462,-0.58L0.549,-0.58C0.549,-0.56 0.553,-0.557 0.575,-0.557C0.622,-0.557 0.638,-0.572 0.638,-0.603L0.634,-0.715L0.634,-0.757C0.659,-0.768 0.664,-0.773 0.664,-0.783C0.664,-0.791 0.654,-0.804 0.626,-0.825C0.599,-0.846 0.588,-0.85 0.581,-0.85C0.573,-0.85 0.568,-0.845 0.541,-0.812L0.481,-0.812C0.47,-0.822 0.44,-0.835 0.377,-0.853L0.371,-0.847C0.377,-0.833 0.378,-0.819 0.378,-0.78L0.378,-0.574C0.365,-0.585 0.337,-0.601 0.28,-0.628L0.273,-0.622C0.274,-0.61 0.271,-0.592 0.264,-0.573C0.262,-0.567 0.259,-0.561 0.257,-0.555C0.227,-0.553 0.196,-0.55 0.166,-0.548C0.234,-0.598 0.275,-0.631 0.332,-0.693C0.364,-0.691 0.369,-0.696 0.369,-0.705C0.369,-0.719 0.344,-0.733 0.263,-0.779L0.256,-0.774ZM0.378,-0.476C0.366,-0.475 0.355,-0.474 0.343,-0.474C0.334,-0.474 0.325,-0.475 0.315,-0.476C0.33,-0.495 0.343,-0.517 0.357,-0.54C0.366,-0.54 0.373,-0.541 0.378,-0.543L0.378,-0.476ZM0.599,-0.31C0.599,-0.304 0.598,-0.296 0.596,-0.288C0.591,-0.262 0.586,-0.247 0.577,-0.222L0.426,-0.222C0.434,-0.228 0.439,-0.237 0.439,-0.251C0.439,-0.279 0.412,-0.3 0.363,-0.31L0.599,-0.31ZM0.462,-0.708L0.462,-0.784C0.472,-0.787 0.478,-0.791 0.482,-0.794L0.549,-0.794L0.549,-0.708L0.462,-0.708ZM0.462,-0.69L0.549,-0.69L0.549,-0.598L0.462,-0.598L0.462,-0.69ZM0.681,0.047L0.681,0.048C0.681,0.08 0.687,0.083 0.72,0.083C0.782,0.083 0.807,0.071 0.807,0.029L0.798,-0.068L0.798,-0.087C0.83,-0.102 0.836,-0.109 0.836,-0.118C0.836,-0.128 0.831,-0.136 0.785,-0.163C0.739,-0.19 0.727,-0.194 0.717,-0.194C0.708,-0.194 0.695,-0.182 0.663,-0.15L0.35,-0.15C0.338,-0.16 0.304,-0.173 0.215,-0.193L0.208,-0.186C0.216,-0.167 0.216,-0.153 0.216,-0.119L0.216,-0.071L0.209,0.052C0.209,0.086 0.214,0.088 0.247,0.088C0.296,0.088 0.321,0.079 0.327,0.047L0.681,0.047ZM0.328,-0.062L0.328,-0.116C0.341,-0.121 0.348,-0.127 0.352,-0.132L0.681,-0.132L0.681,-0.062L0.328,-0.062ZM0.328,-0.044L0.681,-0.044L0.681,0.029L0.328,0.029L0.328,-0.044ZM0.79,-0.81C0.779,-0.82 0.748,-0.833 0.679,-0.851L0.673,-0.845C0.679,-0.831 0.68,-0.817 0.68,-0.778L0.68,-0.639L0.675,-0.398C0.675,-0.375 0.679,-0.372 0.702,-0.372C0.755,-0.372 0.774,-0.383 0.774,-0.418L0.773,-0.494C0.809,-0.482 0.817,-0.459 0.822,-0.429C0.825,-0.411 0.828,-0.408 0.845,-0.408C0.907,-0.408 0.959,-0.456 0.959,-0.509C0.959,-0.573 0.936,-0.611 0.842,-0.659C0.84,-0.66 0.836,-0.662 0.836,-0.666C0.836,-0.669 0.837,-0.671 0.841,-0.674C0.864,-0.693 0.892,-0.719 0.923,-0.752C0.95,-0.759 0.96,-0.765 0.96,-0.773C0.96,-0.786 0.955,-0.793 0.932,-0.813C0.895,-0.845 0.886,-0.85 0.879,-0.85C0.873,-0.85 0.865,-0.843 0.838,-0.81L0.79,-0.81ZM0.771,-0.64L0.771,-0.782C0.781,-0.785 0.787,-0.789 0.791,-0.792L0.847,-0.792C0.839,-0.758 0.829,-0.722 0.815,-0.685C0.814,-0.682 0.811,-0.674 0.811,-0.669C0.811,-0.663 0.815,-0.657 0.823,-0.647C0.85,-0.613 0.867,-0.582 0.867,-0.549C0.867,-0.523 0.858,-0.514 0.844,-0.511C0.832,-0.508 0.807,-0.506 0.773,-0.507L0.771,-0.64Z" style="fill-rule:nonzero;"/>
                    </g>
                </g>
                <g transform="matrix(-0.258819,0.965926,-0.965926,-0.258819,1174.266719,169.140975)">
                    <g transform="matrix(100,0,0,100,443.598345,305.259021)">
                        <path d="M0.512,-0.409C0.516,-0.368 0.521,-0.328 0.531,-0.288C0.545,-0.236 0.565,-0.186 0.593,-0.139C0.514,-0.043 0.408,0.029 0.284,0.073L0.287,0.083C0.441,0.061 0.557,0.016 0.648,-0.064C0.697,-0.01 0.757,0.033 0.83,0.067C0.844,0.073 0.861,0.079 0.872,0.079C0.881,0.079 0.885,0.075 0.893,0.057C0.909,0.022 0.948,-0.017 0.984,-0.042L0.984,-0.052C0.884,-0.068 0.795,-0.095 0.722,-0.141C0.768,-0.199 0.807,-0.271 0.841,-0.357C0.879,-0.369 0.884,-0.374 0.884,-0.385C0.884,-0.397 0.879,-0.406 0.827,-0.446C0.794,-0.472 0.781,-0.481 0.769,-0.481C0.759,-0.481 0.748,-0.468 0.717,-0.427L0.682,-0.427L0.682,-0.641L0.806,-0.641C0.799,-0.606 0.791,-0.576 0.766,-0.514L0.775,-0.509C0.824,-0.533 0.863,-0.561 0.897,-0.583C0.958,-0.586 0.968,-0.591 0.968,-0.61C0.968,-0.621 0.962,-0.633 0.916,-0.675C0.876,-0.712 0.861,-0.722 0.853,-0.722C0.844,-0.722 0.831,-0.709 0.79,-0.659L0.682,-0.659L0.682,-0.78C0.715,-0.789 0.722,-0.796 0.722,-0.807C0.722,-0.826 0.686,-0.835 0.562,-0.852L0.555,-0.845C0.565,-0.824 0.567,-0.8 0.567,-0.764L0.567,-0.659L0.486,-0.659C0.477,-0.668 0.447,-0.68 0.347,-0.705L0.34,-0.698C0.347,-0.678 0.352,-0.659 0.352,-0.621L0.352,-0.417C0.352,-0.192 0.316,-0.06 0.231,0.07L0.239,0.076C0.387,-0.03 0.453,-0.176 0.461,-0.409L0.512,-0.409ZM0.461,-0.427C0.462,-0.438 0.462,-0.449 0.462,-0.46L0.462,-0.63C0.473,-0.634 0.479,-0.637 0.483,-0.641L0.567,-0.641L0.567,-0.427L0.461,-0.427ZM0.724,-0.409C0.706,-0.334 0.678,-0.266 0.641,-0.206C0.587,-0.264 0.551,-0.334 0.527,-0.409L0.724,-0.409ZM0.029,-0.195C0.094,-0.165 0.098,-0.15 0.098,-0.103C0.098,-0.087 0.096,-0.065 0.093,-0.043C0.089,-0.016 0.086,0.012 0.086,0.035C0.086,0.07 0.101,0.092 0.143,0.092C0.204,0.092 0.23,0.054 0.23,0.005C0.23,-0.028 0.216,-0.073 0.195,-0.122C0.19,-0.134 0.191,-0.145 0.191,-0.156C0.191,-0.166 0.193,-0.175 0.202,-0.205C0.241,-0.341 0.271,-0.453 0.331,-0.681L0.322,-0.685C0.242,-0.488 0.169,-0.342 0.105,-0.222C0.096,-0.205 0.085,-0.201 0.071,-0.201C0.052,-0.201 0.046,-0.201 0.032,-0.203L0.029,-0.195ZM0.101,-0.817C0.144,-0.8 0.164,-0.761 0.172,-0.709C0.178,-0.669 0.191,-0.648 0.235,-0.648C0.274,-0.648 0.301,-0.678 0.301,-0.715C0.301,-0.782 0.243,-0.833 0.104,-0.827L0.101,-0.817ZM0.016,-0.592C0.057,-0.573 0.079,-0.542 0.087,-0.484C0.093,-0.444 0.113,-0.425 0.144,-0.425C0.183,-0.425 0.215,-0.446 0.215,-0.49C0.215,-0.557 0.158,-0.608 0.019,-0.602L0.016,-0.592Z" style="fill-rule:nonzero;"/>
                    </g>
                </g>
                <g transform="matrix(-0.707107,0.707107,-0.707107,-0.707107,1249.36162,550.601039)">
                    <g transform="matrix(100,0,0,100,443.598345,305.259021)">
                        <path d="M0.36,-0.148L0.551,-0.148C0.568,-0.148 0.574,-0.151 0.574,-0.163C0.574,-0.173 0.562,-0.184 0.533,-0.21C0.513,-0.228 0.501,-0.237 0.493,-0.24C0.528,-0.246 0.547,-0.262 0.547,-0.291L0.541,-0.403L0.541,-0.451C0.568,-0.463 0.577,-0.471 0.577,-0.482C0.577,-0.493 0.568,-0.503 0.527,-0.537C0.489,-0.568 0.48,-0.573 0.469,-0.573C0.459,-0.573 0.45,-0.564 0.416,-0.516L0.36,-0.516L0.36,-0.61L0.564,-0.61C0.581,-0.61 0.587,-0.613 0.587,-0.625C0.587,-0.636 0.581,-0.643 0.545,-0.673C0.51,-0.702 0.496,-0.71 0.488,-0.71C0.479,-0.71 0.472,-0.703 0.417,-0.628L0.36,-0.628L0.36,-0.7C0.383,-0.706 0.396,-0.712 0.396,-0.724C0.396,-0.726 0.395,-0.729 0.394,-0.731C0.421,-0.735 0.449,-0.74 0.477,-0.745C0.491,-0.742 0.502,-0.741 0.511,-0.741C0.53,-0.741 0.538,-0.747 0.538,-0.756C0.538,-0.771 0.525,-0.787 0.426,-0.85L0.416,-0.85C0.405,-0.839 0.392,-0.831 0.368,-0.819C0.298,-0.783 0.175,-0.743 0.036,-0.718L0.039,-0.709C0.112,-0.708 0.181,-0.71 0.249,-0.715C0.25,-0.704 0.25,-0.692 0.25,-0.675L0.25,-0.628L0.239,-0.628C0.155,-0.628 0.094,-0.63 0.034,-0.636L0.043,-0.602C0.097,-0.608 0.155,-0.61 0.239,-0.61L0.25,-0.61L0.25,-0.516L0.201,-0.516C0.189,-0.525 0.157,-0.537 0.076,-0.558L0.069,-0.551C0.076,-0.535 0.077,-0.52 0.077,-0.482L0.077,-0.417L0.07,-0.244C0.07,-0.215 0.075,-0.21 0.103,-0.21C0.153,-0.21 0.182,-0.228 0.182,-0.26L0.182,-0.272L0.25,-0.272L0.25,-0.166L0.245,-0.166C0.161,-0.166 0.1,-0.168 0.04,-0.174L0.049,-0.14C0.103,-0.146 0.161,-0.148 0.245,-0.148L0.25,-0.148L0.25,-0.062C0.212,-0.059 0.173,-0.057 0.134,-0.055C0.095,-0.053 0.066,-0.052 0.035,-0.054L0.03,-0.047C0.04,-0.01 0.051,0.019 0.067,0.054C0.071,0.063 0.077,0.068 0.083,0.068C0.088,0.068 0.095,0.067 0.101,0.066C0.275,0.026 0.41,-0.014 0.551,-0.075C0.515,-0.019 0.466,0.032 0.402,0.079L0.406,0.088C0.56,0.031 0.638,-0.041 0.697,-0.166C0.739,-0.256 0.759,-0.384 0.768,-0.548L0.826,-0.548C0.828,-0.344 0.815,-0.204 0.8,-0.125C0.788,-0.059 0.769,-0.042 0.728,-0.042C0.7,-0.042 0.683,-0.043 0.636,-0.046L0.634,-0.035C0.695,-0.013 0.707,0.008 0.715,0.059C0.718,0.079 0.722,0.082 0.739,0.082C0.775,0.082 0.815,0.076 0.848,0.055C0.887,0.03 0.906,-0.009 0.918,-0.093C0.931,-0.194 0.939,-0.331 0.94,-0.493C0.969,-0.506 0.976,-0.513 0.976,-0.524C0.976,-0.535 0.969,-0.544 0.925,-0.583C0.891,-0.614 0.877,-0.622 0.865,-0.622C0.856,-0.622 0.849,-0.615 0.812,-0.566L0.769,-0.566C0.772,-0.628 0.774,-0.695 0.775,-0.766C0.807,-0.779 0.812,-0.785 0.812,-0.797C0.812,-0.815 0.801,-0.824 0.647,-0.848L0.641,-0.84C0.652,-0.82 0.656,-0.8 0.656,-0.743C0.656,-0.677 0.656,-0.619 0.655,-0.566C0.608,-0.567 0.57,-0.569 0.528,-0.574L0.537,-0.54C0.573,-0.545 0.609,-0.547 0.654,-0.548C0.651,-0.406 0.641,-0.308 0.616,-0.219C0.604,-0.176 0.587,-0.134 0.564,-0.095C0.496,-0.086 0.428,-0.077 0.36,-0.071L0.36,-0.148ZM0.36,-0.166L0.36,-0.272L0.43,-0.272L0.43,-0.267C0.43,-0.242 0.435,-0.238 0.46,-0.238L0.47,-0.238C0.46,-0.231 0.445,-0.212 0.41,-0.166L0.36,-0.166ZM0.36,-0.29L0.36,-0.389L0.43,-0.389L0.43,-0.29L0.36,-0.29ZM0.36,-0.407L0.36,-0.498L0.43,-0.498L0.43,-0.407L0.36,-0.407ZM0.182,-0.29L0.182,-0.389L0.25,-0.389L0.25,-0.29L0.182,-0.29ZM0.182,-0.407L0.182,-0.484C0.194,-0.489 0.201,-0.493 0.204,-0.498L0.25,-0.498L0.25,-0.407L0.182,-0.407Z" style="fill-rule:nonzero;"/>
                    </g>
                </g>
                <g transform="matrix(-0.965926,0.258819,-0.258819,-0.965926,1123.66568,918.502595)">
                    <g transform="matrix(100,0,0,100,443.598345,305.259021)">
                        <path d="M0.588,-0.427C0.524,-0.428 0.464,-0.43 0.408,-0.435L0.417,-0.401C0.446,-0.404 0.477,-0.406 0.509,-0.407C0.519,-0.309 0.549,-0.216 0.601,-0.132C0.517,-0.04 0.41,0.03 0.282,0.074L0.285,0.084C0.438,0.066 0.558,0.019 0.657,-0.058C0.707,-0.002 0.767,0.041 0.833,0.064C0.847,0.069 0.866,0.077 0.878,0.077C0.888,0.077 0.894,0.068 0.9,0.056C0.92,0.015 0.946,-0.014 0.984,-0.035L0.984,-0.045C0.881,-0.062 0.798,-0.089 0.732,-0.127C0.791,-0.19 0.84,-0.266 0.882,-0.356C0.918,-0.368 0.923,-0.374 0.923,-0.385C0.923,-0.397 0.917,-0.404 0.865,-0.447C0.83,-0.476 0.819,-0.481 0.807,-0.481C0.797,-0.481 0.787,-0.473 0.755,-0.427L0.707,-0.427L0.707,-0.611L0.956,-0.611C0.973,-0.611 0.979,-0.614 0.979,-0.626C0.979,-0.635 0.97,-0.644 0.929,-0.68C0.891,-0.713 0.883,-0.72 0.871,-0.72C0.862,-0.72 0.852,-0.708 0.797,-0.629L0.707,-0.629L0.707,-0.78C0.74,-0.789 0.747,-0.796 0.747,-0.807C0.747,-0.826 0.71,-0.835 0.583,-0.852L0.576,-0.845C0.586,-0.824 0.588,-0.8 0.588,-0.764L0.588,-0.629C0.541,-0.629 0.494,-0.63 0.446,-0.632C0.441,-0.638 0.434,-0.645 0.425,-0.654C0.4,-0.679 0.389,-0.689 0.379,-0.689C0.368,-0.689 0.361,-0.681 0.312,-0.607L0.305,-0.607L0.305,-0.774C0.338,-0.785 0.345,-0.793 0.345,-0.806C0.345,-0.821 0.307,-0.834 0.19,-0.847L0.183,-0.84C0.192,-0.824 0.195,-0.804 0.195,-0.747L0.195,-0.607L0.173,-0.607C0.105,-0.607 0.068,-0.61 0.028,-0.615L0.037,-0.581C0.074,-0.586 0.107,-0.589 0.173,-0.589L0.195,-0.589L0.195,-0.396C0.169,-0.388 0.144,-0.38 0.119,-0.373C0.083,-0.363 0.055,-0.356 0.024,-0.35L0.022,-0.34C0.036,-0.305 0.05,-0.267 0.066,-0.236C0.069,-0.229 0.077,-0.226 0.083,-0.226C0.088,-0.226 0.096,-0.231 0.1,-0.233C0.133,-0.252 0.165,-0.271 0.195,-0.29L0.195,-0.081C0.195,-0.046 0.186,-0.037 0.152,-0.034C0.121,-0.031 0.094,-0.031 0.055,-0.032L0.055,-0.021C0.137,0.005 0.147,0.023 0.153,0.064C0.156,0.086 0.157,0.09 0.184,0.09C0.245,0.09 0.314,0.046 0.314,-0.016L0.306,-0.356C0.359,-0.395 0.412,-0.438 0.464,-0.484L0.458,-0.494C0.407,-0.472 0.356,-0.451 0.305,-0.433L0.305,-0.589L0.448,-0.589C0.463,-0.589 0.468,-0.592 0.468,-0.602C0.468,-0.604 0.468,-0.606 0.466,-0.608C0.507,-0.611 0.547,-0.611 0.588,-0.611L0.588,-0.427ZM0.762,-0.409C0.735,-0.328 0.697,-0.255 0.648,-0.19C0.586,-0.248 0.548,-0.326 0.524,-0.408C0.553,-0.409 0.582,-0.409 0.613,-0.409L0.762,-0.409Z" style="fill-rule:nonzero;"/>
                    </g>
                </g>
                <g transform="matrix(-0.965926,-0.258819,0.258819,-0.965926,830.859025,1174.266719)">
                    <g transform="matrix(100,0,0,100,443.598345,305.259021)">
                        <path d="M0.176,-0.631C0.179,-0.614 0.173,-0.601 0.163,-0.564C0.135,-0.462 0.088,-0.347 0.026,-0.258L0.033,-0.25C0.067,-0.274 0.097,-0.301 0.125,-0.329L0.125,-0.241L0.117,0.054C0.117,0.087 0.124,0.09 0.154,0.09C0.204,0.09 0.233,0.079 0.233,0.039L0.233,-0.383C0.263,-0.393 0.27,-0.399 0.27,-0.41C0.27,-0.421 0.258,-0.428 0.215,-0.436C0.24,-0.471 0.264,-0.509 0.287,-0.549C0.303,-0.551 0.313,-0.553 0.32,-0.557C0.362,-0.561 0.403,-0.562 0.445,-0.563L0.445,-0.398L0.437,0.052C0.437,0.089 0.441,0.09 0.474,0.09C0.534,0.09 0.564,0.076 0.564,0.027L0.555,-0.397L0.555,-0.563L0.718,-0.563C0.735,-0.563 0.741,-0.566 0.741,-0.578C0.741,-0.586 0.734,-0.595 0.699,-0.621C0.666,-0.646 0.655,-0.652 0.646,-0.652C0.64,-0.652 0.631,-0.645 0.581,-0.581L0.555,-0.581L0.555,-0.777C0.568,-0.782 0.578,-0.786 0.584,-0.791C0.599,-0.774 0.606,-0.745 0.611,-0.697C0.614,-0.664 0.635,-0.657 0.654,-0.657C0.676,-0.657 0.699,-0.67 0.703,-0.7C0.739,-0.704 0.766,-0.705 0.793,-0.705L0.947,-0.705C0.959,-0.705 0.965,-0.708 0.965,-0.715C0.965,-0.724 0.962,-0.732 0.925,-0.765C0.891,-0.795 0.882,-0.8 0.871,-0.8C0.863,-0.8 0.85,-0.788 0.804,-0.723L0.793,-0.723C0.767,-0.723 0.739,-0.725 0.7,-0.729C0.685,-0.772 0.635,-0.794 0.594,-0.802C0.595,-0.804 0.595,-0.806 0.595,-0.808C0.595,-0.825 0.584,-0.835 0.44,-0.853L0.433,-0.845C0.441,-0.825 0.445,-0.802 0.445,-0.755L0.445,-0.581C0.402,-0.582 0.359,-0.583 0.315,-0.586C0.3,-0.596 0.264,-0.609 0.185,-0.636L0.176,-0.631ZM0.771,-0.079C0.771,-0.044 0.761,-0.039 0.739,-0.035C0.709,-0.03 0.671,-0.028 0.635,-0.029L0.635,-0.018C0.702,-0.001 0.722,0.032 0.728,0.063C0.732,0.085 0.734,0.089 0.768,0.089C0.834,0.089 0.895,0.043 0.895,-0.018L0.885,-0.296L0.885,-0.458C0.901,-0.463 0.909,-0.47 0.91,-0.485L0.965,-0.485C0.977,-0.485 0.983,-0.488 0.983,-0.497C0.983,-0.506 0.977,-0.516 0.943,-0.545C0.904,-0.578 0.895,-0.583 0.884,-0.583C0.873,-0.583 0.864,-0.572 0.815,-0.503L0.773,-0.503C0.733,-0.503 0.7,-0.504 0.633,-0.512L0.641,-0.478C0.702,-0.484 0.732,-0.485 0.771,-0.485L0.771,-0.079ZM0.18,-0.853C0.179,-0.84 0.176,-0.83 0.161,-0.796C0.137,-0.742 0.094,-0.663 0.026,-0.579L0.033,-0.571C0.146,-0.627 0.21,-0.681 0.295,-0.771C0.325,-0.773 0.336,-0.778 0.336,-0.789C0.336,-0.805 0.323,-0.813 0.189,-0.858L0.18,-0.853ZM0.573,-0.438C0.611,-0.378 0.618,-0.295 0.615,-0.196C0.614,-0.148 0.63,-0.132 0.663,-0.132C0.695,-0.132 0.725,-0.156 0.725,-0.2C0.725,-0.297 0.671,-0.377 0.579,-0.445L0.573,-0.438ZM0.299,-0.457C0.306,-0.443 0.307,-0.426 0.307,-0.39C0.307,-0.233 0.295,-0.132 0.252,-0.008L0.258,-0.002C0.337,-0.101 0.391,-0.184 0.406,-0.397C0.43,-0.407 0.434,-0.413 0.434,-0.42C0.434,-0.436 0.419,-0.441 0.306,-0.463L0.299,-0.457Z" style="fill-rule:nonzero;"/>
                    </g>
                </g>
                <g transform="matrix(-0.707107,-0.707107,0.707107,-0.707107,449.398961,1249.36162)">
                    <g transform="matrix(100,0,0,100,443.598345,305.259021)">
                        <path d="M0.304,0.09C0.478,0.031 0.565,-0.074 0.598,-0.181C0.621,-0.257 0.63,-0.34 0.632,-0.454L0.711,-0.454L0.711,-0.376L0.706,0.06C0.706,0.087 0.712,0.091 0.744,0.091C0.803,0.091 0.838,0.083 0.838,0.039L0.827,-0.378L0.827,-0.454L0.963,-0.454C0.978,-0.454 0.983,-0.457 0.983,-0.467C0.983,-0.476 0.978,-0.487 0.943,-0.526C0.917,-0.554 0.906,-0.561 0.896,-0.561C0.887,-0.561 0.876,-0.547 0.833,-0.472L0.827,-0.472L0.827,-0.729C0.845,-0.733 0.853,-0.74 0.855,-0.753L0.928,-0.753C0.945,-0.753 0.951,-0.759 0.951,-0.768C0.951,-0.779 0.945,-0.787 0.903,-0.821C0.867,-0.85 0.855,-0.856 0.845,-0.856C0.836,-0.856 0.826,-0.844 0.775,-0.771L0.633,-0.771C0.569,-0.771 0.506,-0.772 0.448,-0.777C0.441,-0.783 0.433,-0.79 0.423,-0.799C0.391,-0.827 0.378,-0.833 0.371,-0.833C0.364,-0.833 0.347,-0.82 0.299,-0.752L0.244,-0.752C0.143,-0.752 0.089,-0.754 0.036,-0.76L0.045,-0.726C0.08,-0.73 0.116,-0.733 0.173,-0.734C0.159,-0.554 0.109,-0.362 0.015,-0.223L0.023,-0.217C0.06,-0.249 0.093,-0.285 0.123,-0.323L0.113,-0.021C0.113,0.004 0.118,0.008 0.145,0.008C0.2,0.008 0.222,-0.001 0.222,-0.048L0.222,-0.112L0.293,-0.112L0.293,-0.079C0.293,-0.055 0.297,-0.051 0.326,-0.051C0.37,-0.051 0.404,-0.062 0.404,-0.109L0.399,-0.297L0.399,-0.426C0.417,-0.436 0.428,-0.442 0.429,-0.451C0.459,-0.453 0.488,-0.453 0.518,-0.454C0.517,-0.355 0.513,-0.276 0.499,-0.205C0.484,-0.124 0.434,0.001 0.298,0.081L0.304,0.09ZM0.518,-0.472C0.483,-0.473 0.449,-0.473 0.415,-0.475C0.409,-0.481 0.401,-0.488 0.39,-0.496C0.361,-0.519 0.343,-0.526 0.334,-0.526C0.324,-0.526 0.317,-0.519 0.284,-0.479L0.242,-0.479C0.236,-0.484 0.229,-0.487 0.222,-0.49C0.253,-0.559 0.276,-0.634 0.292,-0.71C0.308,-0.714 0.315,-0.717 0.317,-0.734L0.449,-0.734C0.464,-0.734 0.469,-0.737 0.469,-0.748C0.485,-0.749 0.502,-0.75 0.518,-0.751L0.518,-0.472ZM0.711,-0.753L0.711,-0.472L0.633,-0.472L0.633,-0.729C0.649,-0.733 0.657,-0.74 0.66,-0.753L0.711,-0.753ZM0.222,-0.13L0.222,-0.452C0.23,-0.455 0.236,-0.458 0.24,-0.461L0.293,-0.461L0.293,-0.13L0.222,-0.13Z" style="fill-rule:nonzero;"/>
                    </g>
                </g>
                <g transform="matrix(-0.258819,-0.965926,0.965926,-0.258819,81.497405,1123.66568)">
                    <g transform="matrix(100,0,0,100,443.598345,305.259021)">
                        <path d="M0.315,-0.687C0.316,-0.672 0.312,-0.656 0.307,-0.637C0.269,-0.499 0.171,-0.406 0.032,-0.349L0.034,-0.339C0.226,-0.367 0.355,-0.437 0.436,-0.613C0.467,-0.618 0.474,-0.625 0.474,-0.635C0.474,-0.652 0.451,-0.663 0.363,-0.687L0.534,-0.687L0.534,-0.632L0.529,-0.535C0.529,-0.439 0.545,-0.426 0.706,-0.426C0.844,-0.426 0.891,-0.435 0.911,-0.447C0.932,-0.46 0.944,-0.468 0.944,-0.496C0.944,-0.518 0.937,-0.526 0.928,-0.536C0.918,-0.547 0.914,-0.555 0.914,-0.568C0.914,-0.586 0.914,-0.595 0.917,-0.622L0.907,-0.623C0.882,-0.584 0.868,-0.568 0.847,-0.554C0.823,-0.538 0.802,-0.531 0.714,-0.531C0.651,-0.531 0.649,-0.534 0.649,-0.566L0.649,-0.659C0.668,-0.663 0.676,-0.671 0.678,-0.687L0.798,-0.687C0.793,-0.659 0.784,-0.627 0.768,-0.58L0.775,-0.573C0.816,-0.591 0.852,-0.611 0.887,-0.631C0.95,-0.631 0.962,-0.634 0.962,-0.653C0.962,-0.664 0.954,-0.679 0.908,-0.721C0.868,-0.758 0.853,-0.768 0.845,-0.768C0.836,-0.768 0.823,-0.755 0.782,-0.705L0.556,-0.705L0.556,-0.777C0.585,-0.787 0.594,-0.792 0.594,-0.805C0.594,-0.822 0.569,-0.832 0.43,-0.85L0.423,-0.843C0.432,-0.824 0.435,-0.804 0.435,-0.763L0.435,-0.705L0.191,-0.705C0.184,-0.728 0.173,-0.748 0.156,-0.767L0.147,-0.765C0.15,-0.715 0.136,-0.673 0.087,-0.646C0.058,-0.631 0.042,-0.615 0.042,-0.582C0.042,-0.543 0.068,-0.519 0.103,-0.519C0.158,-0.519 0.2,-0.562 0.2,-0.641C0.2,-0.657 0.199,-0.672 0.196,-0.687L0.315,-0.687ZM0.321,-0.297C0.22,-0.297 0.147,-0.299 0.081,-0.305L0.09,-0.271C0.151,-0.277 0.22,-0.279 0.321,-0.279L0.355,-0.279C0.341,-0.189 0.311,-0.12 0.269,-0.065C0.219,0.001 0.142,0.05 0.041,0.082L0.043,0.092C0.174,0.079 0.263,0.049 0.334,-0.008C0.408,-0.066 0.458,-0.152 0.481,-0.279L0.605,-0.279L0.602,-0.206L0.589,-0.026C0.584,0.046 0.602,0.073 0.744,0.073C0.85,0.073 0.882,0.069 0.915,0.059C0.948,0.049 0.969,0.029 0.969,-0.002C0.969,-0.02 0.961,-0.033 0.951,-0.044C0.94,-0.055 0.935,-0.07 0.935,-0.085C0.935,-0.103 0.939,-0.142 0.945,-0.183L0.935,-0.185C0.913,-0.133 0.891,-0.094 0.871,-0.074C0.85,-0.052 0.835,-0.043 0.768,-0.043C0.733,-0.043 0.717,-0.046 0.719,-0.076L0.727,-0.227C0.757,-0.24 0.767,-0.248 0.767,-0.259C0.767,-0.27 0.759,-0.28 0.717,-0.313C0.678,-0.344 0.665,-0.352 0.655,-0.352C0.644,-0.352 0.633,-0.342 0.594,-0.297L0.483,-0.297C0.488,-0.324 0.49,-0.352 0.492,-0.383C0.522,-0.392 0.532,-0.399 0.532,-0.412C0.532,-0.428 0.503,-0.438 0.367,-0.459L0.36,-0.452C0.365,-0.435 0.367,-0.419 0.364,-0.361C0.363,-0.339 0.361,-0.317 0.358,-0.297L0.321,-0.297Z" style="fill-rule:nonzero;"/>
                    </g>
                </g>
                <g transform="matrix(0.258819,-0.965926,0.965926,0.258819,-174.266719,830.859025)">
                    <g transform="matrix(100,0,0,100,443.598345,305.259021)">
                        <path d="M0.342,-0.338L0.342,-0.3C0.342,-0.272 0.347,-0.267 0.373,-0.267C0.43,-0.267 0.462,-0.284 0.462,-0.32L0.456,-0.462L0.456,-0.52C0.482,-0.532 0.492,-0.542 0.492,-0.552C0.492,-0.564 0.482,-0.574 0.446,-0.605C0.408,-0.637 0.397,-0.641 0.387,-0.641C0.379,-0.641 0.369,-0.632 0.33,-0.583L0.223,-0.583C0.212,-0.593 0.179,-0.606 0.088,-0.634L0.082,-0.628C0.093,-0.605 0.094,-0.579 0.094,-0.522L0.094,-0.367C0.094,-0.134 0.077,-0.038 0.018,0.075L0.024,0.079C0.142,-0.018 0.198,-0.138 0.203,-0.338L0.342,-0.338ZM0.204,-0.356L0.204,-0.548C0.217,-0.554 0.224,-0.558 0.226,-0.565L0.342,-0.565L0.342,-0.356L0.204,-0.356ZM0.644,-0.505L0.735,-0.505L0.735,-0.32L0.727,0.053C0.726,0.083 0.731,0.089 0.764,0.089C0.83,0.089 0.863,0.07 0.863,0.033L0.854,-0.326L0.854,-0.478C0.873,-0.486 0.88,-0.493 0.881,-0.505L0.957,-0.505C0.974,-0.505 0.98,-0.508 0.98,-0.519C0.98,-0.527 0.972,-0.536 0.934,-0.569C0.897,-0.602 0.886,-0.607 0.876,-0.607C0.868,-0.607 0.857,-0.599 0.802,-0.523L0.644,-0.523L0.644,-0.707C0.655,-0.711 0.663,-0.715 0.668,-0.72C0.753,-0.725 0.829,-0.731 0.898,-0.741C0.909,-0.74 0.919,-0.739 0.927,-0.739C0.948,-0.739 0.956,-0.744 0.956,-0.756C0.956,-0.771 0.939,-0.786 0.84,-0.852L0.828,-0.852C0.815,-0.84 0.804,-0.831 0.78,-0.817C0.735,-0.791 0.694,-0.771 0.652,-0.753C0.632,-0.763 0.594,-0.776 0.523,-0.798L0.515,-0.791C0.525,-0.766 0.528,-0.752 0.528,-0.701L0.528,-0.488C0.528,-0.339 0.51,-0.228 0.471,-0.141C0.428,-0.049 0.361,0.023 0.276,0.078L0.283,0.086C0.395,0.049 0.485,-0.01 0.545,-0.096C0.611,-0.189 0.644,-0.316 0.644,-0.496L0.644,-0.505ZM0.244,-0.751C0.169,-0.751 0.097,-0.753 0.033,-0.759L0.042,-0.725C0.102,-0.731 0.172,-0.733 0.244,-0.733L0.486,-0.733C0.503,-0.733 0.509,-0.736 0.509,-0.748C0.509,-0.757 0.502,-0.765 0.459,-0.802C0.423,-0.833 0.415,-0.84 0.403,-0.84C0.394,-0.84 0.384,-0.828 0.331,-0.751L0.244,-0.751Z" style="fill-rule:nonzero;"/>
                    </g>
                </g>
            </g>
        </g>
    </g>
</svg>
