<?xml version="1.0" encoding="UTF-8" standalone="no"?><!DOCTYPE svg PUBLIC "-//W3C//DTD SVG 1.1//EN" "http://www.w3.org/Graphics/SVG/1.1/DTD/svg11.dtd"><svg width="100%" height="100%" viewBox="0 0 460 460" version="1.1" xmlns="http://www.w3.org/2000/svg" xmlns:xlink="http://www.w3.org/1999/xlink" xml:space="preserve" xmlns:serif="http://www.serif.com/" style="fill-rule:evenodd;clip-rule:evenodd;stroke-linejoin:round;stroke-miterlimit:1.5;"><circle id="outermost-circle" serif:id="outermost circle" cx="230" cy="230" r="230" style="fill:#ebebeb;fill-opacity:0;"/><path d="M230,-0c126.94,0 230,103.06 230,230c0,126.94 -103.06,230 -230,230c-126.94,0 -230,-103.06 -230,-230c0,-126.94 103.06,-230 230,-230Zm0,2.662c-125.471,0 -227.338,101.867 -227.338,227.338c0,125.471 101.867,227.338 227.338,227.338c125.471,0 227.338,-101.867 227.338,-227.338c0,-125.471 -101.867,-227.338 -227.338,-227.338Z"/><circle id="second-circle" serif:id="second circle" cx="230" cy="230" r="217.222" style="fill:#ebebeb;fill-opacity:0;"/><path d="M230,12.778c119.888,0 217.222,97.334 217.222,217.222c0,119.888 -97.334,217.222 -217.222,217.222c-119.888,0 -217.222,-97.334 -217.222,-217.222c0,-119.888 97.334,-217.222 217.222,-217.222Zm0,4.167c-117.589,0 -213.056,95.467 -213.056,213.056c0,117.589 95.467,213.056 213.056,213.056c117.589,0 213.056,-95.467 213.056,-213.056c0,-117.589 -95.467,-213.056 -213.056,-213.056Z"/><path d="M50.198,229.548c4.361,-25.699 13.083,-77.097 23.353,-64.235c10.27,12.861 38.27,141.404 38.27,141.404c0,0 30.074,-220.102 46.118,-207.339c16.044,12.763 33.259,287.648 50.145,283.918c16.887,-3.73 33.579,-295.82 51.174,-306.296c17.595,-10.476 37.92,229.662 54.395,243.44c16.475,13.778 31.592,-155.269 44.454,-160.774c12.863,-5.505 24.106,115.961 32.722,127.744c8.616,11.783 18.973,-57.044 18.973,-57.044" style="fill:none;stroke:#000;stroke-width:3.75px;"/><path d="M51.827,230.794l-3.258,-1.857c2.702,-4.74 7.059,-12.299 12.377,-16.753c3.982,-3.335 8.494,-4.969 13.26,-3.193c2.087,0.778 4.374,2.862 6.706,5.855c4.837,6.208 10.216,16.457 15.862,24.622c2.568,3.713 5.18,6.985 7.839,9.16c2.257,1.847 4.494,2.911 6.783,2.378c1.753,-0.408 3.468,-1.988 5.286,-4.217c3.148,-3.859 6.362,-9.654 9.648,-16.064c5.06,-9.87 10.263,-21.173 15.526,-29.383c3.756,-5.859 7.64,-10.151 11.438,-11.629c1.69,-0.658 3.384,-0.814 5.076,-0.413c3.22,0.762 6.638,4.184 9.933,9.537c6.931,11.26 14.038,31.21 21.178,47.878c3.98,9.293 7.954,17.55 11.944,22.565c1.214,1.526 2.416,2.737 3.629,3.534c0.974,0.64 1.934,1.003 2.905,0.939c1.307,-0.086 2.565,-0.921 3.87,-2.204c1.589,-1.563 3.166,-3.782 4.755,-6.483c5.014,-8.526 10.02,-21.689 15.068,-34.936c6.002,-15.751 12.077,-31.614 18.215,-40.262c2.963,-4.175 6.057,-6.717 9.062,-7.249c3.316,-0.588 6.787,0.901 10.236,4.127c4.501,4.21 9.129,11.463 13.735,19.787c6.723,12.149 13.455,26.602 19.898,36.748c2.481,3.907 4.903,7.162 7.275,9.336c1.378,1.263 2.708,2.151 4.031,2.481c2.746,0.684 5.396,-0.595 8.046,-2.852c3.067,-2.612 6.059,-6.541 9,-10.966c6.447,-9.7 12.605,-21.731 18.376,-28.422c2.831,-3.283 5.674,-5.31 8.343,-5.65c2.498,-0.318 4.966,0.47 7.358,2.146c3.116,2.183 6.152,5.947 9.037,10.321c4.109,6.23 7.956,13.709 11.493,19.162c2.093,3.227 3.956,5.753 5.793,6.52c1.231,0.514 2.507,0.289 3.768,-0.297c1.579,-0.735 3.12,-2.02 4.564,-3.509c4.666,-4.809 8.252,-11.759 8.252,-11.759l3.331,1.722c0,0 -5.326,10.23 -11.591,15.091c-3.165,2.456 -6.588,3.541 -9.769,2.212c-1.78,-0.743 -3.724,-2.623 -5.692,-5.311c-4.017,-5.484 -8.471,-14.477 -13.279,-21.767c-2.178,-3.303 -4.421,-6.248 -6.746,-8.28c-1.974,-1.724 -3.959,-2.797 -6.045,-2.532c-1.226,0.156 -2.445,0.931 -3.722,2.059c-1.52,1.343 -3.062,3.187 -4.638,5.35c-4.988,6.844 -10.236,16.784 -15.709,25.018c-3.817,5.742 -7.772,10.662 -11.783,13.334c-3.047,2.03 -6.158,2.828 -9.292,2.048c-3.271,-0.814 -6.78,-3.919 -10.285,-8.636c-7.451,-10.029 -15.389,-27.466 -23.295,-41.753c-4.383,-7.919 -8.732,-14.858 -13.015,-18.864c-2.408,-2.252 -4.705,-3.584 -7.02,-3.173c-1.268,0.225 -2.498,1.045 -3.755,2.258c-1.476,1.424 -2.937,3.376 -4.401,5.728c-7.224,11.603 -14.304,32.555 -21.362,50.349c-4.12,10.387 -8.243,19.715 -12.349,25.62c-3.116,4.48 -6.389,7.024 -9.511,7.229c-3.185,0.209 -6.517,-1.862 -9.715,-5.88c-4.147,-5.211 -8.321,-13.767 -12.457,-23.423c-7.064,-16.493 -14.066,-36.247 -20.924,-47.389c-1.393,-2.263 -2.772,-4.157 -4.151,-5.561c-1.169,-1.19 -2.299,-2.02 -3.453,-2.293c-0.952,-0.225 -1.902,-0.111 -2.852,0.259c-3.261,1.269 -6.416,5.128 -9.641,10.158c-5.207,8.122 -10.341,19.308 -15.346,29.07c-3.424,6.679 -6.799,12.703 -10.08,16.724c-2.467,3.024 -4.965,4.946 -7.343,5.499c-2.726,0.634 -5.465,-0.046 -8.165,-1.782c-3.512,-2.257 -7.015,-6.395 -10.391,-11.277c-4.823,-6.974 -9.446,-15.476 -13.704,-21.659c-2.56,-3.717 -4.866,-6.608 -7.09,-7.437c-3.451,-1.286 -6.658,0.138 -9.542,2.553c-4.98,4.172 -8.996,11.297 -11.527,15.736Z"/><path d="M36.425,231.901l0,-3.803l387.15,0l0,3.803l-387.15,0Z"/></svg>