<?xml version="1.0" encoding="UTF-8" standalone="no"?><!DOCTYPE svg PUBLIC "-//W3C//DTD SVG 1.1//EN" "http://www.w3.org/Graphics/SVG/1.1/DTD/svg11.dtd"><svg width="100%" height="100%" viewBox="0 0 800 800" version="1.1" xmlns="http://www.w3.org/2000/svg" xmlns:xlink="http://www.w3.org/1999/xlink" xml:space="preserve" xmlns:serif="http://www.serif.com/" style="fill-rule:evenodd;clip-rule:evenodd;stroke-linejoin:round;stroke-miterlimit:1.5;"><g><circle id="outermost-circle" serif:id="outermost circle" cx="400" cy="400" r="400" style="fill:#ebebeb;fill-opacity:0;"/><path d="M400,0c220.766,0 400,179.234 400,400c0,220.766 -179.234,400 -400,400c-220.766,0 -400,-179.234 -400,-400c0,-220.766 179.234,-400 400,-400Zm0,4.167c-218.466,0 -395.833,177.367 -395.833,395.833c0,218.466 177.367,395.833 395.833,395.833c218.466,0 395.833,-177.367 395.833,-395.833c0,-218.466 -177.367,-395.833 -395.833,-395.833Z"/><circle id="second-circle" serif:id="second circle" cx="400" cy="400" r="390" style="fill:#ebebeb;fill-opacity:0;"/><path d="M400,10c215.247,0 390,174.753 390,390c0,215.247 -174.753,390 -390,390c-215.247,0 -390,-174.753 -390,-390c0,-215.247 174.753,-390 390,-390Zm0,8.333c-210.648,0 -381.667,171.019 -381.667,381.667c0,210.648 171.019,381.667 381.667,381.667c210.648,0 381.667,-171.019 381.667,-381.667c0,-210.648 -171.019,-381.667 -381.667,-381.667Z"/><g><path d="M203,399.505c4.778,-28.157 14.334,-84.471 25.587,-70.38c11.253,14.092 26.52,166.97 41.93,154.93c15.41,-12.04 32.951,-241.155 50.529,-227.171c17.578,13.984 36.44,315.162 54.942,311.075c18.502,-4.086 36.791,-324.116 56.069,-335.594c19.278,-11.478 41.547,251.63 59.598,266.725c18.051,15.095 34.614,-170.121 48.706,-176.152c14.093,-6.032 26.412,127.053 35.851,139.963c9.44,12.91 20.787,-62.5 20.787,-62.5" style="fill:none;stroke:#000;stroke-width:4.17px;"/><path d="M204.81,400.884l-3.62,-2.064c2.962,-5.195 7.738,-13.481 13.567,-18.364c4.371,-3.662 9.326,-5.453 14.557,-3.503c2.291,0.854 4.801,3.139 7.36,6.424c5.3,6.802 11.194,18.032 17.381,26.978c2.812,4.065 5.672,7.649 8.584,10.031c2.465,2.017 4.908,3.181 7.407,2.6c1.177,-0.274 2.34,-1.068 3.547,-2.192c2.163,-2.016 4.348,-5.059 6.582,-8.715c5.856,-9.587 11.919,-23.278 18.098,-34.697c4.268,-7.886 8.626,-14.701 12.968,-18.54c3.401,-3.007 6.873,-4.273 10.286,-3.464c3.533,0.837 7.286,4.589 10.902,10.462c7.595,12.338 15.383,34.198 23.206,52.462c4.36,10.179 8.712,19.223 13.083,24.716c1.328,1.669 2.643,2.994 3.969,3.866c1.062,0.698 2.107,1.094 3.166,1.024c1.426,-0.094 2.798,-1.007 4.221,-2.407c1.74,-1.711 3.466,-4.141 5.205,-7.097c5.494,-9.34 10.977,-23.761 16.507,-38.274c6.578,-17.261 13.235,-34.643 19.961,-44.12c3.252,-4.582 6.65,-7.37 9.948,-7.954c3.641,-0.645 7.453,0.987 11.24,4.529c4.933,4.614 10.006,12.564 15.054,21.686c7.366,13.311 14.742,29.145 21.8,40.262c2.717,4.279 5.369,7.843 7.966,10.224c1.506,1.38 2.958,2.351 4.404,2.711c3,0.747 5.895,-0.653 8.79,-3.119c3.358,-2.861 6.635,-7.163 9.856,-12.009c7.065,-10.629 13.812,-23.812 20.136,-31.143c3.108,-3.603 6.229,-5.827 9.159,-6.2c2.744,-0.35 5.454,0.515 8.082,2.356c3.416,2.393 6.746,6.52 9.909,11.316c4.502,6.826 8.717,15.021 12.592,20.996c2.289,3.53 4.325,6.294 6.334,7.133c1.341,0.56 2.731,0.314 4.105,-0.325c1.727,-0.804 3.413,-2.21 4.992,-3.838c5.109,-5.266 9.037,-12.877 9.037,-12.877l3.701,1.914c0,0 -5.839,11.215 -12.708,16.544c-3.477,2.698 -7.238,3.887 -10.733,2.428c-1.954,-0.816 -4.088,-2.879 -6.249,-5.829c-4.401,-6.009 -9.282,-15.863 -14.55,-23.85c-2.385,-3.617 -4.841,-6.842 -7.387,-9.066c-2.156,-1.883 -4.323,-3.057 -6.6,-2.767c-1.339,0.171 -2.668,1.017 -4.062,2.249c-1.664,1.47 -3.352,3.489 -5.078,5.857c-5.465,7.499 -11.215,18.388 -17.211,27.41c-4.184,6.295 -8.521,11.688 -12.918,14.617c-3.346,2.23 -6.763,3.104 -10.204,2.247c-3.589,-0.893 -7.44,-4.298 -11.285,-9.473c-8.164,-10.989 -16.862,-30.095 -25.525,-45.75c-4.8,-8.674 -9.564,-16.273 -14.255,-20.661c-2.63,-2.46 -5.138,-3.918 -7.667,-3.47c-1.384,0.245 -2.727,1.142 -4.099,2.466c-1.615,1.559 -3.214,3.696 -4.817,6.27c-7.914,12.711 -15.671,35.666 -23.403,55.16c-4.515,11.383 -9.033,21.606 -13.534,28.076c-3.421,4.918 -7.015,7.708 -10.443,7.933c-3.497,0.23 -7.158,-2.041 -10.669,-6.453c-4.545,-5.711 -9.12,-15.088 -13.653,-25.67c-7.74,-18.069 -15.41,-39.712 -22.924,-51.918c-1.525,-2.478 -3.035,-4.551 -4.544,-6.087c-1.277,-1.3 -2.509,-2.206 -3.77,-2.505c-2.213,-0.524 -4.361,0.582 -6.566,2.531c-4.064,3.593 -8.069,10.021 -12.064,17.402c-7.273,13.438 -14.405,29.985 -21.212,39.45c-3.273,4.552 -6.605,7.501 -9.736,8.229c-2.994,0.696 -6.002,-0.05 -8.968,-1.956c-3.85,-2.474 -7.691,-7.011 -11.393,-12.363c-5.284,-7.641 -10.35,-16.957 -15.015,-23.731c-2.8,-4.066 -5.322,-7.231 -7.754,-8.137c-3.771,-1.406 -7.275,0.153 -10.426,2.793c-5.454,4.568 -9.852,12.372 -12.623,17.233Z"/><path d="M187.909,402.083l0,-4.167l424.182,0l0,4.167l-424.182,-0Z"/></g></g><g id="五反田音響波動技術研究所"><path id="五" d="M200.03,231.567c-6.01,6.01 -13.576,13.294 -17.961,16.829l3.041,1.768c3.253,-4.101 10.607,-11.738 16.758,-17.89l45.891,-45.891c2.051,-2.051 2.263,-2.687 1.344,-3.606c-0.707,-0.707 -2.404,-0.99 -8.202,-1.131c-4.101,-0.141 -5.94,0.141 -6.647,0.849c-0.919,0.919 -0.495,3.041 1.909,12.94l-1.909,1.909l-24.537,-24.537c1.061,-2.616 0.849,-3.818 0.141,-4.525c-0.778,-0.778 -2.546,-0.849 -7.566,-0.354c-5.02,0.495 -6.223,1.131 -6.93,1.838c-0.566,0.566 -0.778,2.192 0,8.344l-11.172,11.172l-15.768,-21.284c0.919,-1.768 0.919,-2.758 0.283,-3.677l23.829,-23.829c1.344,-1.344 1.556,-1.98 0.636,-2.899c-0.707,-0.707 -1.838,-0.99 -8.415,-0.212c-5.869,0.636 -6.859,0.919 -7.707,1.768c-0.636,0.636 -0.636,2.758 0.778,13.506l-24.466,24.466c-6.152,6.152 -14.001,13.718 -18.526,17.395l3.041,1.768c3.253,-4.101 10.607,-11.738 16.758,-17.89l3.323,-3.323l17.253,23.193l-1.202,1.202c-6.01,6.01 -9.829,9.546 -15.768,14.637l3.111,1.697c4.667,-5.515 7.92,-9.051 13.93,-15.061l0.99,-0.99l23.759,31.82Zm8.91,-8.91l-23.688,-31.891l12.304,-12.304l27.789,27.789l-16.405,16.405Z" style="fill-rule:nonzero;"/><path d="M294.536,80.199c-1.54,-0.726 -5.599,-1.191 -15.712,-1.07l-0.495,0.857c1.684,2.034 2.395,3.914 3.43,7.777l4.736,17.676c9.835,36.705 7.763,49.063 1.465,61.103l0.954,0.469c13.689,-15.367 17.831,-31.591 9.413,-63.396l8.21,-2.2c4.432,11.132 10.294,22.192 18.878,30.659c-5.846,12.955 -15.103,23.614 -28.187,33.124l0.355,0.94c15.741,-7.324 27.956,-16.601 36.2,-28.335c9.07,5.645 17.698,8.095 28.096,9.036c2.235,0.229 4.954,0.329 6.016,0.044c0.966,-0.259 1.661,-0.756 2.013,-2.92c1.043,-5.766 3.492,-10.15 7.128,-13.194l-0.285,-1.063c-14.194,2.664 -26.877,2.854 -38.226,-1.249c4.575,-9.198 7.5,-19.92 8.825,-31.974c3.998,-1.692 5.047,-2.802 4.736,-3.961c-0.388,-1.449 -1.078,-2.092 -6.679,-4.836c-6.187,-3.001 -7.669,-3.121 -8.442,-2.914c-1.159,0.311 -2.535,2.129 -5.298,8.045l-33.807,9.059l-4.711,-17.58c1.487,-1.02 2.104,-1.806 2.239,-2.463l58.535,-15.684c1.545,-0.414 1.951,-0.833 1.718,-1.703c-0.233,-0.869 -1.168,-1.654 -6.131,-3.948c-4.963,-2.294 -6.277,-2.563 -7.146,-2.33c-0.869,0.233 -2.109,2.946 -5.038,10.564l-42.791,11.466Zm38.563,14.1c-0.277,10.945 -1.715,20.647 -4.455,29.353c-8.851,-5.6 -15.489,-13.76 -21.046,-22.52l25.5,-6.833Z" style="fill-rule:nonzero;"/><path d="M441.645,136.396l52.257,14.002l-1.553,5.796c-0.776,2.898 -0.204,3.465 3.273,4.397c5.409,1.449 9.661,1.036 11.059,-4.18l10.319,-42.373l4.866,-18.159c3.26,-0.576 4.266,-1.238 4.499,-2.107c0.311,-1.159 -0.397,-2.384 -3.927,-7.367c-3.53,-4.984 -4.489,-5.655 -5.359,-5.888c-0.676,-0.181 -2.068,0.378 -7.586,3.972l-48.103,-12.889c-1.164,-1.451 -4.833,-3.987 -13.169,-8.809l-0.857,0.495c0.345,2.577 -0.239,5.527 -1.222,9.197l-5.72,21.347l-13.229,46.666c-0.776,2.898 -0.397,3.414 2.887,4.294c5.796,1.553 9.289,0.108 10.169,-3.176l1.398,-5.216Zm40.845,-25.705l7.247,-27.046c2.087,-0.062 2.751,-0.609 3.158,-1.742l18.063,4.84l-7.894,29.461l-20.574,-5.513Zm-0.466,1.739l20.574,5.513l-8.23,30.716l-20.574,-5.513l8.23,-30.716Zm-20.305,27.481l-19.608,-5.254l8.23,-30.716l19.608,5.254l-8.23,30.716Zm8.696,-32.455l-19.608,-5.254l7.428,-27.722c1.92,-0.21 2.725,-0.512 3.17,-1.014l16.904,4.529l-7.894,29.461Z" style="fill-rule:nonzero;"/><path id="音" d="M639.356,173.655c-0.636,0.778 -1.626,1.626 -3.111,2.687c-2.687,1.98 -8.768,5.94 -14.92,9.405l-11.384,-11.384c2.404,0.99 5.233,0.566 7.707,-1.909c4.172,-4.172 5.303,-11.243 -2.263,-21.92l-0.849,0.141c0.919,4.455 -1.414,8.485 -6.01,13.223c-2.404,2.546 -2.899,4.879 -2.404,6.647l-4.031,-4.031c-7.495,-7.495 -13.718,-14.001 -17.395,-18.526l-1.768,3.041c4.101,3.253 10.607,9.475 17.89,16.758l47.023,47.023c1.131,1.131 1.697,1.273 2.333,0.636c0.636,-0.636 0.849,-1.838 0.354,-7.283c-0.495,-5.445 -0.919,-6.718 -1.556,-7.354c-0.636,-0.636 -3.606,-0.354 -11.667,0.919l-11.879,-11.879c6.152,-0.212 11.879,-0.99 15.981,-1.838c2.828,2.546 4.031,3.041 5.233,1.838c0.849,-0.849 0.495,-3.041 -5.445,-14.354l19.304,19.304c1.131,1.131 1.697,1.273 2.333,0.636c0.636,-0.636 0.849,-1.838 0.354,-7.283c-0.495,-5.445 -0.919,-6.718 -1.556,-7.354c-0.636,-0.636 -3.606,-0.354 -11.667,0.919l-12.162,-12.162l4.808,-4.808c2.97,1.697 3.96,1.697 4.738,0.919c1.344,-1.344 -0.424,-4.384 -8.768,-15.132l-0.99,0c-0.778,2.192 -2.333,4.031 -4.879,6.576l-3.677,3.677l-7.495,-7.495c-7.495,-7.495 -13.718,-14.001 -17.395,-18.526l-1.768,3.041c4.101,3.253 10.607,9.475 17.89,16.758l19.092,19.092Zm-67.882,31.961l21.637,21.637l-2.263,2.263c-2.121,2.121 -2.192,2.758 0.354,5.303c3.818,3.818 8.202,5.091 10.889,2.404l16.829,-18.102l4.738,-4.738c2.899,1.061 4.101,1.131 4.879,0.354c0.778,-0.778 0.99,-2.263 0.283,-7.637c-0.707,-4.95 -0.99,-6.081 -1.909,-7c-0.636,-0.636 -1.909,-0.919 -8.132,-0.212l-19.375,-19.375c0,-1.556 -1.414,-5.233 -6.435,-13.647l-0.99,0c-0.849,1.98 -2.475,4.031 -5.798,7.354l-5.303,5.303l-21.001,19.87c-2.263,2.263 -2.051,3.041 -0.212,4.879c4.95,4.95 8.061,5.091 10.536,2.616l1.273,-1.273Zm14.708,-14.708l9.475,-9.475c1.344,0.636 2.121,0.849 2.687,0.566l20.011,20.011l-10.536,10.536l-21.637,-21.637Zm-1.273,1.273l21.637,21.637l-12.162,12.162l-21.637,-21.637l12.162,-12.162Z" style="fill-rule:nonzero;"/><path d="M719.845,288.519c-1.159,0.311 -2.931,0.268 -4.876,-0.039c-3.138,-0.505 -6.353,-1.3 -9.401,-2.243l0.58,-0.155c2.028,-0.544 3.888,-2.491 4.902,-5.662c2.605,1.994 5.106,3.601 8.432,5.195c0.621,2.318 1.46,3.129 2.329,2.896c1.256,-0.336 1.82,-2.869 3.045,-12.204l-0.761,-0.521c-1.326,0.459 -2.853,0.557 -4.721,0.54c-2.912,-0.048 -5.289,-0.032 -7.498,-0.165c0.043,-1.771 0.034,-3.736 -0.368,-6.01l-0.928,-0.373c-0.904,3.969 -4.063,6.472 -7.727,7.868c-3.47,1.344 -3.584,3.238 -3.092,5.073c0.181,0.676 0.433,1.23 0.878,1.732c-2.198,-0.861 -4.35,-1.94 -6.407,-3.046c-0.866,-2.46 -1.532,-4.559 -1.998,-6.297c-0.181,-0.676 -0.311,-1.159 -0.473,-2.151l-0.78,-0.205c-2.71,1.865 -4.847,3.162 -6.713,4.697c-0.766,0.619 -0.83,1.154 -0.674,1.734c0.104,0.386 0.426,0.818 1.22,1.847c2.729,3.617 6.078,8 10.425,12.632c-10.419,-2.178 -21.234,-7.769 -28.167,-14.711l-0.669,0.593c7.214,10.697 14.122,17.543 25.258,22.013c-2.754,2.084 -5.219,4.09 -6.699,5.522c-0.74,0.716 -0.83,1.154 -0.674,1.734c0.104,0.386 0.426,0.818 1.22,1.847c1.142,1.557 2.729,3.617 4.49,5.94c-0.888,0.549 -2.144,0.885 -3.786,1.325l-4.347,1.165l-0.958,-3.574c-2.743,-10.239 -4.88,-18.984 -5.801,-24.742l-3.051,1.749c1.24,3.084 2.702,7.765 4.3,13.342c-0.604,1.611 -1.826,2.456 -5.245,3.994c-1.107,0.504 -1.802,1.001 -2.227,1.735l-1.656,-6.182c-2.743,-10.239 -4.88,-18.984 -5.801,-24.742l-3.051,1.749c1.925,4.868 4.448,13.509 7.114,23.458l17.289,64.524c0.414,1.545 0.833,1.951 1.703,1.718c0.773,-0.207 1.461,-1.116 3.368,-5.975c2.004,-4.885 2.176,-6.174 1.943,-7.043c-0.233,-0.869 -2.657,-2.187 -9.598,-5.296l-3.727,-13.909c1.477,1.261 2.831,2.451 4.649,3.827c1.033,2.311 1.53,3.006 2.689,2.696c0.676,-0.181 1.306,-1.696 1.447,-7.738l5.358,19.995c0.414,1.545 0.833,1.951 1.703,1.718c0.773,-0.207 0.907,-0.864 2.892,-5.434c1.657,-3.86 1.811,-4.833 1.604,-5.606c-0.207,-0.773 -1.722,-1.402 -8.006,-4.377l-4.089,-15.262l3.96,-1.061c1.446,2.304 2.065,3.07 3.031,2.811c1.159,-0.311 1.588,-2.186 0.475,-12.136c2.006,2.465 3.89,4.859 6.064,7.175c-0.792,0.523 -1.583,1.045 -2.498,1.497c-2.549,1.304 -3.127,3.012 -2.635,4.847c0.621,2.318 2.453,4.519 6.414,3.458c4.057,-1.087 7.825,-6.341 5.758,-16.761l-0.928,-0.373c-0.623,1.927 -1.947,3.938 -3.955,5.718c-1.118,-3.013 -2.307,-5.904 -3.425,-8.917l9.466,-2.536l2.252,8.404c-1.932,0.518 -2.118,0.982 -1.549,3.107c1.216,4.54 3.079,5.697 6.074,4.895l10.715,-3.285l4.057,-1.087c1.71,2.13 2.322,2.484 3.288,2.225c0.773,-0.207 1.77,-1.509 3.073,-4.758c1.33,-3.152 1.431,-4.318 1.25,-4.994c-0.207,-0.773 -0.819,-1.126 -4.706,-2.88l-1.553,-5.796c0.681,-1.321 1.16,-4.556 1.269,-11.107l-0.735,-0.424c-1.197,0.942 -2.523,1.401 -6.291,2.41l-19.898,5.332c0.726,-1.54 1.547,-4.659 2.68,-10.864l-0.761,-0.521c-1.133,0.407 -2.95,0.583 -4.966,0.399c-0.631,-0.038 -1.289,-0.172 -1.92,-0.21c-0.97,-2.846 -2.062,-5.763 -3.031,-8.609c6.59,5.274 10.838,8.38 18.302,12.281c0.635,3.143 1.247,3.496 2.117,3.263c1.352,-0.362 2.058,-3.14 4.404,-12.154l-0.664,-0.547Zm-25.627,19.497c-0.407,-1.133 -0.788,-2.17 -1.099,-3.329c-0.233,-0.869 -0.369,-1.765 -0.532,-2.756c2.223,0.957 4.685,1.643 7.269,2.4c0.233,0.869 0.511,1.52 0.833,1.951l-6.472,1.734Zm-10.314,25.643c-0.58,0.155 -1.378,0.266 -2.203,0.28c-2.641,0.19 -4.219,0.095 -6.867,-0.127l-3.908,-14.585c0.787,0.617 1.785,0.867 3.138,0.505c2.705,-0.725 4.034,-3.876 3.732,-8.868l6.108,22.796Zm34.898,-23.534l7.341,-1.967c0.549,0.888 1.09,1.364 1.484,1.673l1.734,6.472l-8.307,2.226l-2.252,-8.404Zm-1.739,0.466l2.252,8.404l-8.887,2.381l-2.252,-8.404l8.887,-2.381Zm-65.521,40.229l-0.097,0.026c-3.091,0.828 -3.225,1.485 -2.371,4.673c1.605,5.989 3.411,8.093 7.468,7.006l9.137,-3.38l1.835,-0.492c2.277,2.703 3.109,3.101 3.978,2.868c0.966,-0.259 1.609,-0.949 3.027,-6.091c1.417,-5.142 1.493,-6.405 1.234,-7.371c-0.233,-0.869 -1.729,-1.814 -5.648,-4.077l-8.101,-30.233c0.655,-1.418 1.031,-5.039 0.659,-14.153l-0.857,-0.495c-1.628,1.264 -2.98,1.627 -6.265,2.507l-4.636,1.242l-12.062,2.507c-3.284,0.88 -3.348,1.415 -2.494,4.602c1.268,4.733 2.785,6.915 6.031,6.666l9.162,34.194Zm1.392,-36.918l5.216,-1.398c0.819,1.126 1.58,1.647 2.167,1.904l8.515,31.779l-6.761,1.812l-9.136,-34.097Zm-1.739,0.466l9.136,34.097l-7.051,1.889l-9.136,-34.097l7.051,-1.889Zm85.947,24.8c0.681,-1.321 1.135,-4.652 1.087,-11.783l-0.735,-0.424c-1.197,0.942 -2.523,1.401 -6.291,2.41l-13.426,3.598l-23.408,5.755c-2.222,0.595 -2.408,1.059 -1.813,3.281c1.372,5.119 2.926,6.67 6.307,5.764l7.315,-2.064c-0.227,3.788 -2.242,5.156 -5.01,6.415c-1.661,0.756 -1.873,1.123 -1.433,2.765c1.605,5.989 7.587,9.769 12.706,8.397c6.182,-1.656 9.257,-4.862 11.461,-15.184c0.045,-0.219 0.134,-0.657 0.521,-0.761c0.29,-0.078 0.509,-0.033 0.902,0.276c2.431,1.73 5.667,3.762 9.657,5.902c1.375,2.427 2.213,3.237 2.986,3.03c1.256,-0.336 1.802,-1.001 3.139,-3.74c2.133,-4.402 2.383,-5.401 2.202,-6.077c-0.155,-0.58 -1.038,-1.171 -4.925,-2.925l-1.242,-4.636Zm-16.912,2.565l13.716,-3.675c0.549,0.888 1.09,1.364 1.484,1.673l1.449,5.409c-3.491,0.107 -7.227,0.073 -11.164,-0.322c-0.316,-0.019 -1.166,-0.102 -1.649,0.028c-0.58,0.155 -1.056,0.697 -1.814,1.729c-2.585,3.488 -5.14,5.932 -8.327,6.787c-2.511,0.673 -3.614,0.037 -4.266,-1.238c-0.6,-1.081 -1.441,-3.445 -2.224,-6.755l12.795,-3.635Z" style="fill-rule:nonzero;"/><path d="M690.852,478.658c-4.064,-0.675 -8.057,-1.227 -12.179,-1.296c-5.385,0.006 -10.732,0.644 -15.997,2.132c-7.228,-10.115 -11.439,-22.218 -12.48,-35.334l-1.044,0.031c-1.861,15.445 -0.516,27.814 4.856,38.675c-6.484,3.335 -12.191,8.018 -17.364,14.189c-0.942,1.197 -1.961,2.684 -2.246,3.746c-0.233,0.869 0.05,1.359 1.582,2.598c2.967,2.451 5.724,7.228 7.207,11.352l0.966,0.259c4.134,-9.245 9.045,-17.143 15.378,-23.004c4.412,5.944 10.357,11.575 17.784,17.085c0.176,3.981 0.529,4.593 1.592,4.878c1.159,0.311 2.158,0.061 7.367,-3.927c3.366,-2.515 4.571,-3.537 4.882,-4.697c0.259,-0.966 -0.712,-2.365 -3.87,-6.42l0.906,-3.381l20.671,5.539l-3.209,11.977c-3.2,-1.582 -5.89,-3.131 -11.232,-7.151l-0.716,0.74c1.05,5.354 2.745,9.846 3.99,13.7c-1.289,5.97 -1.065,7.065 0.77,7.557c1.063,0.285 2.377,0.016 7.624,-3.34c4.609,-2.906 5.963,-4.096 6.17,-4.869c0.233,-0.869 -0.686,-2.462 -4.455,-7.716l2.795,-10.432l11.688,3.132c0.015,3.42 0.51,4.278 1.573,4.563c1.835,0.492 3.636,-2.753 8.488,-14.29l-0.495,-0.857c-2.287,0.422 -4.657,-0.006 -8.135,-0.937l-10.142,-2.718l2.096,-7.824c1.102,-0.636 3.038,-3.224 8.041,-12.236l-0.495,-0.857c-2.113,0.159 -4.078,0.15 -7.748,-0.834l-19.705,-5.28c-21.733,-5.823 -33.552,-12.717 -43.909,-24.292l-0.787,0.617c6.408,17.039 18.803,27.193 41.102,33.996l-1.32,4.926Zm3.059,-4.46c1.037,0.381 2.099,0.666 3.162,0.951l16.421,4.4c0.102,1.166 0.236,1.823 0.519,2.313l-2.174,8.114l-20.671,-5.539l2.743,-10.239Zm-8.546,24.938c-6.779,-3.68 -12.622,-8.144 -17.46,-13.271c7,-3.715 14.693,-5.38 22.559,-5.758l-5.099,19.029Zm-2.683,-72.671c-4.58,5.502 -6.133,5.5 -10.672,4.284c-1.545,-0.414 -3.619,-1.177 -5.666,-2.036c-2.504,-1.085 -5.131,-2.1 -7.353,-2.695c-3.381,-0.906 -5.894,-0.026 -6.981,4.031c-1.579,5.892 1.419,9.387 6.152,10.655c3.188,0.854 7.897,0.666 13.173,-0.094c1.289,-0.172 2.325,0.209 3.388,0.494c0.966,0.259 1.783,0.685 4.448,2.331c12.127,7.287 22.169,13.084 42.639,24.78l0.619,-0.766c-16.958,-12.826 -29.171,-23.656 -39.106,-32.944c-1.409,-1.309 -1.511,-2.475 -1.148,-3.828c0.492,-1.835 0.647,-2.415 1.203,-3.715l-0.695,-0.497Zm58.217,23.053c-2.755,3.713 -7.04,4.636 -12.27,4.063c-4.019,-0.456 -6.384,0.256 -7.523,4.507c-1.009,3.767 1.19,7.152 4.763,8.109c6.472,1.734 12.899,-2.548 15.917,-16.13l-0.888,-0.549Zm-19.533,-14.034c-2.896,3.469 -6.46,4.791 -12.27,4.063c-4.019,-0.456 -6.372,0.984 -7.174,3.979c-1.009,3.767 0.191,7.402 4.441,8.54c6.472,1.734 12.873,-2.452 15.891,-16.033l-0.888,-0.549Z" style="fill-rule:nonzero;"/><path d="M604.849,584.343l-13.506,13.506c-1.202,1.202 -1.414,1.838 -0.566,2.687c0.707,0.707 2.333,0.636 6.223,0.424c2.687,-0.141 4.172,-0.354 4.95,-0.707c-2.051,2.899 -2.263,5.374 -0.212,7.425l8.344,7.495l3.394,3.394c-1.061,2.758 -1.131,3.96 -0.354,4.738c0.778,0.778 2.121,0.849 7.425,0.354c4.879,-0.495 5.869,-0.778 6.647,-1.556c0.707,-0.707 0.707,-1.98 -0.283,-7.778l3.96,-3.96l6.647,6.647l-14.425,14.425c-1.202,1.202 -1.414,1.838 -0.566,2.687c0.778,0.778 1.697,0.849 6.364,0.424c4.525,-0.424 6.081,-0.849 6.647,-1.414c0.636,-0.636 0.636,-1.626 -0.778,-10.819l4.031,-4.031l5.091,5.091c-1.202,2.051 -1.697,3.394 -0.849,4.243c0.141,0.141 0.424,0.283 0.636,0.354c-1.626,2.192 -3.253,4.525 -4.879,6.859c-1.202,0.778 -2.051,1.485 -2.687,2.121c-1.344,1.344 -1.485,2.333 -0.849,2.97c1.061,1.061 3.111,1.273 14.566,-1.273l0.707,-0.707c0,-1.556 0.354,-3.041 1.202,-5.586c2.404,-7.495 8.273,-19.021 16.334,-30.618l-0.849,-0.424c-5.233,5.091 -9.97,10.112 -14.425,15.274c-0.849,-0.707 -1.697,-1.556 -2.899,-2.758l-3.323,-3.323l0.778,-0.778c5.94,-5.94 10.394,-10.112 15.061,-13.93l-3.041,-1.768c-3.394,4.243 -7.354,8.485 -13.294,14.425l-0.778,0.778l-6.647,-6.647l3.465,-3.465c1.485,-0.212 4.596,-1.626 11.809,-5.869l0,-0.99c-1.626,-0.636 -2.758,-1.626 -5.445,-4.313l-4.596,-4.596l-11.738,-12.728c-2.051,-2.051 -2.758,-2.051 -4.738,-0.071c-3.536,3.536 -4.313,6.859 -2.051,9.122l0.849,0.849l-4.808,4.808l-7.495,-7.495l0.354,-0.354c5.94,-5.94 10.394,-10.112 15.061,-13.93l-3.041,-1.768c-3.394,4.243 -7.354,8.485 -13.294,14.425l-0.354,0.354l-6.081,-6.081c2.475,-2.899 5.091,-5.798 7.707,-8.697c2.616,-2.899 4.596,-5.02 6.93,-7.071l-0.141,-0.849c-3.323,-1.909 -6.152,-3.182 -9.758,-4.525c-0.919,-0.354 -1.697,-0.283 -2.121,0.141c-0.354,0.354 -0.778,0.919 -1.131,1.414c-9.475,15.132 -16.193,27.506 -21.85,41.79c-1.414,-6.505 -1.556,-13.576 -0.354,-21.425l-0.919,-0.354c-6.859,14.92 -7.283,25.527 -2.616,38.537c3.394,9.334 11.031,19.799 21.991,32.032l-4.101,4.101c-14.566,-14.284 -23.547,-25.102 -28.072,-31.749c-3.818,-5.515 -3.677,-8.061 -0.778,-10.96c1.98,-1.98 3.253,-3.111 6.788,-6.223l-0.636,-0.919c-5.869,2.758 -8.202,2.121 -12.374,-0.919c-1.626,-1.202 -2.121,-1.131 -3.323,0.071c-2.546,2.546 -4.95,5.798 -5.798,9.617c-0.99,4.525 0.424,8.627 5.515,15.415c6.223,8.061 15.344,18.314 26.729,29.84c-1.131,2.97 -1.131,3.96 -0.354,4.738c0.778,0.778 1.909,0.919 7.778,0.566c4.596,-0.212 6.152,-0.636 7,-1.485c0.636,-0.636 0.636,-1.626 -0.212,-7.707l3.041,-3.041c4.172,4.596 8.768,9.475 13.718,14.566c-1.344,3.182 -1.273,3.96 -0.424,4.808c1.273,1.273 2.687,1.131 15.274,-8.061l-0.141,-0.99c-2.192,-0.636 -3.889,-1.768 -7.92,-5.798c-4.667,-4.667 -8.768,-8.768 -12.445,-12.587c3.394,-3.253 6.223,-5.798 9.546,-8.415l-3.041,-1.768c-2.192,2.899 -4.596,5.586 -7.707,8.839c-9.829,-10.253 -16.051,-17.89 -20.577,-25.951c-2.192,-3.889 -3.96,-8.061 -5.091,-12.445c4.172,-5.445 8.344,-10.889 12.728,-16.122l5.445,5.445Zm1.273,1.273l7.495,7.495l-4.95,4.95l-0.354,-0.354c-1.768,-1.768 -2.404,-1.697 -4.172,0.071l-0.707,0.707c0.212,-1.202 -0.071,-3.606 -0.849,-9.334l3.536,-3.536Zm8.768,8.768l7,7l-4.95,4.95l-7,-7l4.95,-4.95Zm8.273,8.273l6.435,6.435l-4.95,4.95l-6.435,-6.435l4.95,-4.95Zm4.313,-20.86l7,7l-4.808,4.808l-7,-7l4.808,-4.808Zm8.273,8.273l5.445,5.445c-0.495,1.202 -0.707,1.98 -0.566,2.546l-3.253,3.253l-6.435,-6.435l4.808,-4.808Z" style="fill-rule:nonzero;"/><path d="M470.431,694.92c6.208,-1.56 12.055,-2.92 17.594,-3.886l-1.749,-3.051c-2.724,1.04 -5.666,2.036 -8.731,2.961c-3.502,-9.207 -8.807,-17.414 -16.004,-24.182c5.733,-11.061 14.256,-20.591 25.481,-28.154l-0.549,-0.888c-14.313,5.699 -24.687,13.344 -32.257,23.344c-6.279,-4.115 -13.187,-6.716 -20.158,-7.229c-1.482,-0.121 -3.524,-0.402 -4.683,-0.091c-0.966,0.259 -1.313,1.283 -1.582,2.598c-0.871,4.478 -2.632,7.952 -5.759,10.964l0.259,0.966c10.389,-1.024 19.105,-0.564 26.464,1.398c-4.068,7.612 -6.834,16.222 -8.562,26.002c-3.167,2.091 -3.494,2.8 -3.21,3.862c0.311,1.159 1.071,1.68 7.207,4.488c4.131,1.895 5.323,2.094 6.482,1.783c0.966,-0.259 1.725,-1.29 3.625,-6.562l4.636,-1.242l4.762,17.773l-24.052,6.445c-1.642,0.44 -2.144,0.885 -1.833,2.044c0.233,0.869 1.335,1.506 6.227,3.922c4.525,2.204 5.479,2.673 6.638,2.363c0.869,-0.233 1.525,-1.651 4.793,-10.705l8.693,-2.329l3.908,14.585c-2.955,1.723 -3.45,2.581 -3.165,3.643c0.492,1.835 4.299,1.747 17.006,0.102l0.495,-0.857c-1.509,-1.77 -2.324,-4.036 -3.256,-7.513l-3.494,-13.04c4.54,-1.216 9.106,-2.336 13.794,-3.385c0.638,0.45 1.496,0.945 2.598,1.582c3.062,1.768 4.383,2.449 5.349,2.19c1.063,-0.285 1.532,-1.239 4.349,-9.655l0.676,-0.181l4.322,16.131c-2.903,1.917 -3.372,2.871 -3.035,4.126c0.388,1.449 4.395,1.721 16.033,-0.051l0.495,-0.857c-1.283,-1.313 -2.091,-3.167 -3.566,-8.673l-3.623,-13.523l2.125,-0.569c6.568,-1.76 10.22,-2.428 14.213,-2.98l-1.749,-3.051c-3.445,1.441 -6.554,2.584 -12.93,4.293l-2.125,0.569l-4.995,-18.642c2.304,-1.446 4.512,-2.865 6.746,-4.189c3.219,-1.898 5.742,-3.299 8.581,-4.68l-0.066,-1.018c-2.258,-3.018 -4.594,-6.327 -6.942,-8.907c-0.471,-0.599 -1.321,-0.681 -1.901,-0.526c-0.483,0.129 -1.126,0.819 -1.461,1.116c-2.696,2.689 -5.295,5.353 -7.701,7.965l-5.409,-20.188c-0.906,-3.381 -0.269,-4.483 2.937,-5.653c2.917,-1.092 5.525,-1.791 9.318,-2.704l-0.285,-1.063c-8.594,-0.389 -10.025,-1.869 -11.666,-5.674c-0.859,-2.047 -1.059,-2.408 -3.667,-1.709c-5.892,1.579 -11.418,7.615 -9.814,13.603l9.573,32.634c-4.11,5.139 -8.116,10.664 -11.949,16.453l0.838,0.811c4.357,-3.445 8.74,-6.793 13.2,-9.852l4.038,15.068l-13.813,3.701c-1.449,0.388 -1.854,0.807 -1.595,1.773c0.052,0.193 0.104,0.386 0.348,0.528c-3.883,1.351 -7.746,2.386 -11.707,3.447l-4.762,-17.773Zm-17.273,2.765c0.512,-8.523 2.293,-16.558 5.343,-24.104c7.49,3.998 13.179,10.548 17.62,17.848c-2.775,0.847 -5.576,1.598 -8.571,2.4l-14.392,3.856Z" style="fill-rule:nonzero;"/><path d="M348.051,720.992c0.15,-1.72 1.066,-2.82 2.99,-6.135c5.345,-9.128 12.861,-19.019 21.153,-26.012l-0.469,-0.954c-3.905,1.438 -7.502,3.27 -10.931,5.25l2.278,-8.5l8.408,-28.288c0.854,-3.188 0.256,-3.659 -2.642,-4.435c-4.83,-1.294 -7.916,-0.982 -8.951,2.882l-10.922,40.762c-3.157,0.189 -3.988,0.588 -4.273,1.65c-0.285,1.063 0.693,2.049 4.64,3.935c-3.321,2.734 -6.622,5.783 -9.879,9.051c-1.597,-0.221 -2.615,-0.287 -3.395,-0.081c-4.16,-0.701 -8.147,-1.665 -12.229,-2.656l4.271,-15.938l12.42,-43.26c0.958,-3.574 0.597,-3.774 -2.59,-4.628c-5.796,-1.553 -9.056,-0.977 -10.324,3.756l-10.105,41.188l-4.296,16.034l-15.745,-4.219c-1.642,-0.44 -2.299,-0.306 -2.61,0.854c-0.207,0.773 0.236,1.823 2.944,5.241c2.541,3.269 3.448,4.133 4.317,4.366c0.58,0.155 1.63,-0.288 8.116,-5.176l2.511,0.673l-5.073,18.932c-1.385,0.146 -2.455,0.274 -3.164,0.602c-1.009,-2.03 -0.934,-5.013 -0.175,-9.779c0.564,-3.265 -1.283,-4.485 -3.118,-4.977c-2.125,-0.569 -4.683,0.091 -5.846,2.885c-3.581,-0.545 -6.215,-1.148 -8.823,-1.846l-14.875,-3.986c-1.159,-0.311 -1.816,-0.176 -1.997,0.5c-0.233,0.869 -0.15,1.72 2.57,5.865c2.508,3.778 3.248,4.494 4.31,4.778c0.773,0.207 2.339,-0.616 8.465,-5.704l1.063,0.285c2.511,0.673 5.164,1.591 8.828,2.987c0.336,4.542 4.596,7.961 8.349,9.795c-0.148,0.167 -0.2,0.36 -0.252,0.554c-0.44,1.642 0.364,2.893 13.807,8.358l0.883,-0.592c-0.255,-2.139 -0.046,-4.464 1.17,-9.004l4.503,-16.807c4.128,1.21 8.255,2.419 12.428,3.848c1.19,1.354 4.331,3.542 11.263,8.194l0.999,-0.25Zm-43.186,-68.719c0.906,-3.381 2.001,-3.605 4.23,-3.422c3.027,0.293 6.749,1.084 10.201,2.112l0.285,-1.063c-6.032,-3.376 -7.109,-7.081 -6.887,-10.231c0.183,-2.229 0.093,-2.667 -3.191,-3.547c-6.375,-1.708 -13.458,1.156 -15.037,7.048l-6.229,27.112l-4.193,15.648c-1.675,0.069 -2.629,0.538 -3.114,1.961l-5.313,-1.424c-1.159,-0.311 -1.816,-0.176 -2.049,0.693c-0.233,0.869 0.088,1.991 2.621,5.672c2.913,4.197 3.653,4.913 4.715,5.198c1.063,0.285 2.217,-0.545 8.735,-5.942l4.057,1.087c3.864,1.035 7.025,1.986 13.29,4.493l0.107,-3.491c-6.047,-0.999 -8.971,-1.679 -12.738,-2.688l10.508,-39.217Zm37.054,90.059c0.433,-1.23 0.982,-2.118 3.311,-5.014c3.716,-4.595 9.914,-11.113 18.656,-17.467l-0.469,-0.954c-12.364,2.485 -19.944,6.044 -30.484,12.537c-2.95,-0.583 -4.141,-0.385 -4.426,0.678c-0.414,1.545 0.635,2.655 12.413,10.47l0.999,-0.25Zm-27.22,-50.258c-2.118,-6.779 -0.646,-14.977 2.207,-24.462c1.339,-4.611 0.208,-6.57 -2.98,-7.424c-3.091,-0.828 -6.61,0.714 -7.749,4.964c-2.511,9.369 0.635,18.495 7.761,27.444l0.761,-0.521Zm25.975,8.927c-0.314,-1.533 0.03,-3.201 0.961,-6.679c4.063,-15.165 7.837,-24.61 15.199,-35.475l-0.424,-0.735c-10.193,7.518 -17.557,14.138 -24.519,34.324c-2.577,0.345 -3.119,0.821 -3.3,1.497c-0.414,1.545 0.905,2.417 11.251,7.466l0.831,-0.398Z" style="fill-rule:nonzero;"/><path d="M236.446,591.979c-16.476,-8.132 -30.052,-6.859 -39.952,-1.626c-7,3.748 -13.506,8.98 -21.708,16.9l-5.586,-5.586l5.515,-5.515l31.183,-30.476c1.909,-1.909 1.768,-2.616 -0.495,-4.879c-4.172,-4.172 -7.212,-6.081 -10.324,-2.97l-28.709,30.264l-5.374,5.374l-9.617,-9.617c-1.061,-1.061 -1.626,-1.202 -2.333,-0.495c-0.636,0.636 -1.061,1.768 -1.344,7c-0.141,3.818 0.141,5.091 0.849,5.798c0.636,0.636 2.404,0.424 10.748,-1.838l0.424,0.424l-18.173,18.173c-1.556,-0.99 -2.616,-1.061 -3.677,-0.283l-5.162,-5.162c-1.202,-1.202 -2.051,-1.202 -2.687,-0.566c-0.778,0.778 -0.919,1.768 -0.354,7.142c0.495,4.596 0.919,5.869 1.626,6.576c0.636,0.636 2.192,0.495 10.96,-1.061l10.041,10.041c4.525,4.525 8.91,9.051 12.657,13.506c0.071,0.919 0.141,1.98 0.212,3.323c0.283,4.243 0.778,5.586 1.273,6.081c0.495,0.495 2.616,0.778 10.819,-0.636l3.889,3.889c7.142,7.142 10.819,11.102 14.142,15.274l1.768,-3.041c-2.758,-2.192 -5.515,-4.525 -9.617,-8.485c13.718,-11.738 30.83,-21.779 47.305,-24.961l-0.141,-0.99c-4.879,-0.354 -9.758,-0.141 -14.566,0.424l22.062,-20.648c1.768,-1.768 1.697,-2.404 -0.212,-4.313c-3.889,-3.889 -6.081,-4.808 -9.405,-1.485l-4.525,4.525l-5.02,-5.02l2.333,-2.333c1.697,-1.697 1.697,-2.263 -0.354,-4.313c-3.111,-3.111 -6.293,-4.738 -9.617,-1.414l-12.94,13.647l-9.122,9.122c-1.98,-0.566 -3.182,-0.919 -3.889,-0.354c-2.263,-1.98 -4.313,-4.031 -6.505,-6.081c7.071,-6.93 12.94,-12.233 18.95,-16.263c6.788,-4.667 19.163,-9.97 34.436,-6.01l0.212,-1.061Zm-54.871,24.607c2.404,2.546 4.808,4.95 7.071,7.495c0,0.849 0.071,1.909 0.283,3.253c0.424,3.677 1.202,5.445 1.838,6.081c0.707,0.707 1.697,0.707 6.859,0.212l2.97,2.97c0.071,0.778 0.354,1.485 0.636,2.192c-7.071,2.687 -14.001,6.364 -20.506,10.607c-1.414,-0.849 -2.121,-1.131 -3.465,-0.071l-9.334,-9.334c-1.061,-1.061 -1.626,-1.202 -2.404,-0.424c-1.202,-1.061 -2.475,-2.192 -3.677,-3.253l19.728,-19.728Zm-33.517,6.223l19.87,-19.87l5.515,5.515l-18.173,18.173c-1.414,-0.849 -2.475,-0.919 -3.606,-0.212l-3.606,-3.606Zm78.63,-9.475l-22.769,22.769c-0.778,-0.354 -1.414,-0.566 -1.909,-0.636l-3.748,-3.748l23.405,-23.405l5.02,5.02Z" style="fill-rule:nonzero;"/><path d="M87.031,503.53c1.423,-0.485 3.072,-0.513 5.037,-0.521c14.313,0.099 25.833,7.158 34.936,19.109l0.914,-0.452c-7.674,-17.821 -17.774,-28.47 -36.871,-31.739c-1.285,-2.865 -2.143,-3.36 -3.109,-3.101c-1.642,0.44 -2.109,2.946 -2.15,12.068l-4.426,-16.517l5.313,-1.424l9.499,-2.028c9.273,-2.485 10.114,-4.367 5.947,-19.918c-3.572,-13.33 -5.657,-17.637 -7.334,-19.258c-1.799,-1.692 -2.883,-2.644 -5.587,-1.919c-2.125,0.569 -2.717,1.453 -3.45,2.581c-0.804,1.251 -1.473,1.844 -2.729,2.181c-1.739,0.466 -2.608,0.699 -5.294,1.108l0.162,0.992c4.414,1.405 6.322,2.344 8.218,4.01c2.167,1.904 3.386,3.751 5.664,12.252c1.631,6.085 1.393,6.356 -1.698,7.184l-8.983,2.407c-0.878,-1.732 -1.858,-2.297 -3.455,-2.076l-3.106,-11.591c2.834,-0.242 6.158,-0.201 11.112,0.128l0.495,-0.857c-2.8,-3.494 -5.663,-6.454 -8.501,-9.317c-1.631,-6.085 -2.231,-7.167 -4.066,-6.675c-1.063,0.285 -2.304,1.446 -5.171,6.976c-2.539,4.821 -3.116,6.529 -2.909,7.302c0.233,0.869 1.825,1.789 7.716,4.455l5.849,21.83l-6.955,1.863c-1.717,-2.542 -2.432,-3.282 -3.688,-2.946c-1.642,0.44 -1.961,3.114 -0.102,17.006l0.857,0.495c1.602,-1.361 3.457,-2.169 7.417,-3.23l5.602,-1.501l6.315,23.569c-2.04,1.271 -3.688,2.852 -5.083,4.985l0.426,0.818c4.752,-1.584 9.171,-1.319 13.047,2.716c2.199,2.413 4.159,3.544 7.347,2.69c3.767,-1.009 5.412,-4.142 4.507,-7.523c-1.424,-5.313 -6.664,-8.257 -14.295,-6.212c-1.545,0.414 -2.968,0.899 -4.34,1.577l-3.08,-11.495Zm37.516,-10.673c2.614,9.756 4.31,16.859 5.439,23.389l3.051,-1.749c-2.158,-5.737 -4.137,-12.35 -6.751,-22.106l-0.88,-3.284c9.056,-0.977 16.497,0.135 22.897,2.768c7.669,3.121 14.395,9.291 20.1,18.218l0.914,-0.452c-4.646,-12.317 -9.848,-20.137 -17.191,-25.52c-7.518,-5.647 -17.119,-8.25 -29.981,-7.185l-3.209,-11.977l7.129,-1.6l17.723,-3.403c7.084,-1.381 9.226,-3.818 5.551,-17.534c-2.743,-10.239 -3.958,-13.226 -5.778,-16.155c-1.82,-2.929 -4.295,-4.44 -7.29,-3.637c-1.739,0.466 -2.787,1.575 -3.591,2.826c-0.778,1.347 -2.097,2.218 -3.546,2.607c-1.739,0.466 -5.609,1.089 -9.725,1.571l0.066,1.018c5.592,0.779 9.929,1.895 12.378,3.309c2.669,1.459 3.926,2.675 5.66,9.147c0.906,3.381 1.03,5.004 -1.919,5.587l-14.793,3.135c-2.032,-2.561 -3.064,-3.32 -4.126,-3.035c-1.063,0.285 -1.821,1.316 -3.922,6.227c-1.985,4.569 -2.421,6.032 -2.162,6.998c0.285,1.063 1.535,1.866 6.891,4.469l2.873,10.722c-2.737,0.216 -5.494,0.747 -8.54,1.357c-1.646,-2.665 -2.581,-3.45 -3.836,-3.113c-1.545,0.414 -1.761,3.474 -0.269,17.154l0.857,0.495c1.513,-0.923 3.006,-1.53 8.686,-2.742c2.151,-0.473 4.328,-0.849 6.337,-1.077l0.958,3.574Z" style="fill-rule:nonzero;"/><path d="M111.606,339.6l3.671,0.984c2.705,0.725 3.317,0.371 3.99,-2.14c1.475,-5.506 0.661,-9.037 -2.816,-9.968l-13.871,-3.096l-5.602,-1.501c-0.486,-2.822 -1.193,-4.047 -2.159,-4.306c-1.159,-0.311 -2.384,0.397 -6.31,3.072c-4.074,2.842 -4.746,3.801 -5.004,4.767c-0.207,0.773 0.403,1.972 4.127,7.007l-2.769,10.335c-1.251,0.804 -3.36,3.655 -8.42,11.72l0.424,0.735c2.506,-0.467 5.044,0.109 10.549,1.584l14.972,4.012c22.506,6.03 31.339,10.157 40.727,18.781l0.542,-0.476c-6.315,-13.908 -16.457,-22.423 -35.646,-28.083l3.598,-13.426Zm-5.31,12.864l-18.546,-4.969c-0.243,-1.411 -0.448,-2.191 -1.073,-2.565l3.002,-11.205l20.188,5.409l-3.572,13.33Zm-3.004,-46.357l2.355,-8.79l17.87,4.788l35.822,10.427c2.872,0.873 3.581,0.545 4.435,-2.642c1.708,-6.375 0.727,-10.054 -2.847,-11.012l-34.91,-8.422l-14.682,-3.934c-0.281,-2.042 -0.776,-2.9 -1.909,-3.307l1.967,-7.341c0.44,-1.642 0.306,-2.299 -0.757,-2.584c-0.773,-0.207 -1.849,0.333 -6.02,3.149c-4.145,2.72 -4.913,3.653 -5.172,4.619c-0.207,0.773 0.281,2.042 6.199,9.322l-4.089,15.262l-17.773,-4.762c-0.102,-1.166 -0.281,-2.042 -0.635,-2.655c1.717,-8.34 3.104,-15.836 3.924,-22.76c0.381,-1.037 0.737,-1.977 0.944,-2.749c0.544,-2.028 0.268,-2.931 -0.891,-3.241c-1.449,-0.388 -3.338,0.866 -12.275,8.72l-0.311,1.159c0.823,1.566 1.407,2.862 2.138,5.542c1.347,5.02 2.217,9.498 2.869,14.02c-1.484,1.673 -3.723,5.007 -7.685,11.296l0.469,0.954c2.674,-0.319 4.104,-0.246 9.03,1.074l20.574,5.513c14.392,3.856 24.648,8.468 32.042,14.487c7.774,6.535 12.994,14.87 16.107,24.504l0.954,-0.469c-0.675,-11.776 -4.045,-21.996 -10.799,-30.018c-7.275,-8.782 -18.688,-15.257 -36.075,-19.915l-0.869,-0.233Zm-34.115,32.27c-1.941,7.244 -3.998,14.147 -6.234,20.174l3.517,0.011c0.973,-5.951 2.592,-12.764 4.455,-19.719l6.263,-23.375c0.44,-1.642 0.306,-2.299 -0.854,-2.61c-0.869,-0.233 -1.823,0.236 -6.51,3.432c-3.926,2.675 -4.809,3.267 -5.12,4.426c-0.233,0.869 0.667,2.146 6.733,9.258l-2.252,8.404Z" style="fill-rule:nonzero;"/></g></svg>