<?xml version="1.0" encoding="UTF-8" standalone="no"?><!DOCTYPE svg PUBLIC "-//W3C//DTD SVG 1.1//EN" "http://www.w3.org/Graphics/SVG/1.1/DTD/svg11.dtd"><svg width="100%" height="100%" viewBox="0 0 920 180" version="1.1" xmlns="http://www.w3.org/2000/svg" xmlns:xlink="http://www.w3.org/1999/xlink" xml:space="preserve" xmlns:serif="http://www.serif.com/" style="fill-rule:evenodd;clip-rule:evenodd;stroke-linejoin:round;stroke-miterlimit:1.5;"><circle id="outermost-circle" serif:id="outermost circle" cx="90" cy="90" r="90" style="fill:#ebebeb;fill-opacity:0;"/><path d="M90,-0c49.672,0 90,40.328 90,90c0,49.672 -40.328,90 -90,90c-49.672,0 -90,-40.328 -90,-90c0,-49.672 40.328,-90 90,-90Zm0,2.083c-48.523,0 -87.917,39.394 -87.917,87.917c0,48.523 39.394,87.917 87.917,87.917c48.523,0 87.917,-39.394 87.917,-87.917c0,-48.523 -39.394,-87.917 -87.917,-87.917Z"/><circle id="second-circle" serif:id="second circle" cx="90" cy="90" r="85" style="fill:#ebebeb;fill-opacity:0;"/><path d="M90,5c46.913,0 85,38.087 85,85c0,46.913 -38.087,85 -85,85c-46.913,0 -85,-38.087 -85,-85c0,-46.913 38.087,-85 85,-85Zm0,3.333c-45.073,0 -81.667,36.594 -81.667,81.667c0,45.073 36.594,81.667 81.667,81.667c45.073,0 81.667,-36.594 81.667,-81.667c0,-45.073 -36.594,-81.667 -81.667,-81.667Z"/><path d="M19.643,89.823c1.706,-10.056 5.119,-30.168 9.138,-25.136c4.019,5.033 9.472,59.632 14.975,55.332c5.504,-4.3 11.768,-86.127 18.046,-81.133c6.278,4.994 13.014,112.558 19.622,111.098c6.608,-1.459 13.14,-115.756 20.025,-119.855c6.885,-4.099 14.838,89.868 21.285,95.259c6.447,5.391 12.362,-60.757 17.395,-62.912c5.033,-2.154 9.433,45.376 12.804,49.987c3.371,4.611 7.424,-22.322 7.424,-22.322" style="fill:none;stroke:#000;stroke-width:2.08px;"/><path d="M20.548,90.463l-1.81,-1.032c1.072,-1.879 2.804,-4.873 4.913,-6.639c1.648,-1.381 3.521,-2.037 5.494,-1.302c0.856,0.319 1.803,1.163 2.759,2.39c1.896,2.433 4.004,6.449 6.217,9.649c0.986,1.426 1.988,2.686 3.009,3.521c0.798,0.653 1.58,1.057 2.389,0.869c0.377,-0.088 0.745,-0.35 1.131,-0.711c0.757,-0.705 1.518,-1.771 2.3,-3.05c2.089,-3.42 4.251,-8.305 6.456,-12.378c1.544,-2.853 3.125,-5.314 4.696,-6.703c1.3,-1.149 2.634,-1.613 3.939,-1.304c1.315,0.311 2.733,1.685 4.078,3.87c2.718,4.416 5.508,12.239 8.308,18.775c1.545,3.606 3.083,6.813 4.632,8.759c0.452,0.568 0.897,1.021 1.348,1.317c0.319,0.21 0.629,0.338 0.948,0.318c0.449,-0.029 0.87,-0.334 1.318,-0.775c0.606,-0.596 1.205,-1.444 1.811,-2.473c1.955,-3.325 3.905,-8.458 5.874,-13.624c2.359,-6.191 4.752,-12.424 7.164,-15.823c1.219,-1.717 2.508,-2.743 3.744,-2.962c1.38,-0.245 2.834,0.351 4.27,1.693c1.779,1.664 3.613,4.528 5.434,7.818c2.628,4.749 5.259,10.398 7.777,14.364c0.954,1.502 1.883,2.755 2.795,3.591c0.495,0.454 0.968,0.78 1.444,0.899c0.985,0.245 1.924,-0.242 2.874,-1.052c1.798,-1.531 3.527,-4.222 5.211,-6.998c1.774,-2.924 3.489,-5.947 5.125,-7.971c1.286,-1.591 2.596,-2.572 3.801,-2.726c1.05,-0.134 2.089,0.189 3.095,0.893c1.245,0.872 2.464,2.373 3.617,4.121c1.608,2.438 3.114,5.366 4.498,7.5c0.776,1.196 1.446,2.15 2.127,2.435c0.401,0.167 0.815,0.08 1.226,-0.111c0.587,-0.273 1.158,-0.755 1.695,-1.308c1.797,-1.852 3.177,-4.528 3.177,-4.528l1.851,0.957c0,-0 -2.125,4.071 -4.62,6.007c-1.336,1.037 -2.787,1.467 -4.13,0.906c-0.734,-0.307 -1.545,-1.072 -2.357,-2.181c-1.574,-2.149 -3.321,-5.673 -5.205,-8.53c-0.836,-1.267 -1.694,-2.398 -2.585,-3.177c-0.697,-0.609 -1.388,-1.011 -2.124,-0.917c-0.428,0.054 -0.846,0.337 -1.291,0.731c-0.58,0.513 -1.168,1.218 -1.77,2.044c-1.95,2.675 -4,6.56 -6.14,9.779c-1.52,2.286 -3.1,4.24 -4.696,5.303c-1.272,0.848 -2.573,1.169 -3.881,0.844c-1.33,-0.331 -2.772,-1.576 -4.197,-3.494c-2.922,-3.933 -6.037,-10.77 -9.138,-16.373c-1.697,-3.066 -3.376,-5.755 -5.034,-7.306c-0.857,-0.802 -1.659,-1.309 -2.483,-1.163c-0.444,0.079 -0.869,0.377 -1.309,0.802c-0.562,0.542 -1.117,1.287 -1.674,2.183c-2.82,4.529 -5.58,12.708 -8.334,19.653c-1.906,4.805 -3.828,9.03 -5.728,11.202c-1.016,1.161 -2.074,1.779 -3.092,1.846c-1.326,0.087 -2.732,-0.744 -4.063,-2.416c-1.635,-2.055 -3.285,-5.428 -4.917,-9.236c-2.758,-6.439 -5.489,-14.153 -8.167,-18.503c-0.531,-0.863 -1.056,-1.586 -1.582,-2.122c-0.409,-0.417 -0.798,-0.718 -1.203,-0.813c-0.705,-0.167 -1.377,0.216 -2.079,0.837c-1.431,1.266 -2.837,3.534 -4.244,6.134c-2.603,4.811 -5.159,10.733 -7.596,14.121c-1.222,1.7 -2.482,2.783 -3.651,3.055c-1.145,0.266 -2.297,-0.009 -3.431,-0.738c-1.402,-0.901 -2.805,-2.548 -4.153,-4.497c-1.887,-2.729 -3.696,-6.056 -5.363,-8.476c-0.956,-1.388 -1.798,-2.487 -2.628,-2.796c-1.243,-0.463 -2.39,0.077 -3.429,0.947c-1.921,1.609 -3.465,4.362 -4.441,6.074Z"/><path d="M13.956,91.042l0,-2.083l152.089,0l0,2.083l-152.089,0Z"/><g transform="matrix(1,0,0,1,-20.607091,-1502.349698)"><g transform="matrix(101,0,0,101,224.312091,1630.977698)"><path d="M0.282,-0.011c-0.085,0 -0.19,-0.002 -0.246,-0.008l0.009,0.034c0.052,-0.006 0.158,-0.008 0.245,-0.008l0.649,0c0.029,0 0.035,-0.003 0.035,-0.016c0,-0.01 -0.01,-0.024 -0.05,-0.066c-0.028,-0.03 -0.043,-0.041 -0.053,-0.041c-0.013,0 -0.025,0.018 -0.078,0.105l-0.027,-0l0,-0.347c0.026,-0.011 0.033,-0.021 0.033,-0.031c0,-0.011 -0.012,-0.024 -0.051,-0.056c-0.039,-0.032 -0.052,-0.036 -0.062,-0.036c-0.008,0 -0.021,0.01 -0.059,0.059l-0.158,0l0.039,-0.262c0.019,-0.006 0.026,-0.013 0.028,-0.024l0.337,0c0.019,0 0.025,-0.003 0.025,-0.016c0,-0.01 -0.006,-0.02 -0.058,-0.061c-0.046,-0.037 -0.055,-0.042 -0.067,-0.042c-0.009,0 -0.024,0.015 -0.09,0.101l-0.346,0c-0.087,0 -0.196,-0.002 -0.254,-0.008l0.009,0.034c0.052,-0.006 0.158,-0.008 0.245,-0.008l0.047,0l-0.042,0.286l-0.017,0c-0.085,0 -0.137,-0.002 -0.215,-0.008l0.01,0.034c0.072,-0.006 0.12,-0.008 0.205,-0.008l0.014,0l-0.057,0.393Zm0.126,0l0.058,-0.393l0.174,0l0,0.393l-0.232,0Z" style="fill-rule:nonzero;"/></g><g transform="matrix(100,0,0,100,326.827091,1630.977698)"><path d="M0.314,-0.758c-0.013,-0.011 -0.051,-0.026 -0.149,-0.051l-0.007,0.007c0.011,0.024 0.013,0.044 0.013,0.084l0,0.183c0,0.38 -0.052,0.494 -0.144,0.594l0.008,0.007c0.172,-0.113 0.254,-0.259 0.255,-0.588l0.085,0c0.014,0.119 0.042,0.241 0.103,0.345c-0.09,0.11 -0.207,0.189 -0.358,0.247l0.001,0.01c0.171,-0.03 0.313,-0.088 0.423,-0.18c0.073,0.078 0.15,0.124 0.248,0.16c0.021,0.008 0.047,0.016 0.058,0.016c0.01,0 0.018,-0.003 0.027,-0.023c0.025,-0.053 0.06,-0.089 0.103,-0.109l0,-0.011c-0.144,-0.011 -0.267,-0.042 -0.366,-0.111c0.068,-0.077 0.124,-0.173 0.168,-0.286c0.043,-0.006 0.056,-0.014 0.056,-0.026c0,-0.015 -0.005,-0.023 -0.052,-0.064c-0.052,-0.045 -0.066,-0.05 -0.074,-0.05c-0.012,0 -0.03,0.014 -0.072,0.064l-0.35,0l0,-0.182c0.017,-0.006 0.025,-0.012 0.028,-0.018l0.606,0c0.016,0 0.021,-0.003 0.021,-0.012c0,-0.009 -0.007,-0.019 -0.049,-0.054c-0.042,-0.035 -0.054,-0.041 -0.063,-0.041c-0.009,0 -0.028,0.023 -0.076,0.089l-0.443,0Zm0.336,0.236c-0.031,0.105 -0.07,0.195 -0.119,0.272c-0.071,-0.077 -0.114,-0.173 -0.145,-0.272l0.264,0Z" style="fill-rule:nonzero;"/></g><g transform="matrix(102,0,0,102,428.327091,1630.977698)"><path d="M0.225,-0.05l0.541,0l0,0.06c0,0.03 0.007,0.034 0.043,0.034c0.056,0 0.096,-0.015 0.096,-0.069l-0.01,-0.436l0,-0.188c0.03,-0.014 0.038,-0.023 0.038,-0.032c0,-0.012 -0.01,-0.022 -0.057,-0.061c-0.047,-0.039 -0.058,-0.043 -0.067,-0.043c-0.007,0 -0.019,0.009 -0.063,0.058l-0.498,0c-0.015,-0.011 -0.057,-0.026 -0.15,-0.051l-0.007,0.007c0.01,0.024 0.012,0.054 0.012,0.092l0,0.221l-0.007,0.485c0,0.03 0.005,0.034 0.039,0.034c0.06,0 0.09,-0.023 0.09,-0.057l0,-0.054Zm0.328,-0.354l0,-0.28c0.02,-0.006 0.025,-0.013 0.026,-0.025l0.187,0l0,0.305l-0.213,0Zm0,0.018l0.213,0l0,0.318l-0.213,0l0,-0.318Zm-0.125,0.318l-0.203,0l0,-0.318l0.203,0l0,0.318Zm0,-0.336l-0.203,0l0,-0.287c0.018,-0.007 0.025,-0.012 0.028,-0.018l0.175,0l0,0.305Z" style="fill-rule:nonzero;"/></g><g transform="matrix(100,0,0,100,531.857091,1630.977698)"><path d="M0.597,-0.689c0.001,0.01 0,0.023 -0.003,0.041c-0.005,0.033 -0.02,0.104 -0.039,0.172l-0.161,0c0.024,-0.01 0.041,-0.033 0.041,-0.068c0,-0.059 -0.042,-0.117 -0.171,-0.139l-0.005,0.007c0.038,0.025 0.05,0.07 0.051,0.136c0.001,0.035 0.014,0.055 0.03,0.064l-0.057,0c-0.106,0 -0.196,-0.002 -0.254,-0.008l0.009,0.034c0.052,-0.006 0.142,-0.008 0.245,-0.008l0.665,0c0.016,0 0.021,-0.003 0.021,-0.012c0,-0.009 -0.007,-0.019 -0.049,-0.054c-0.042,-0.035 -0.054,-0.041 -0.063,-0.041c-0.009,0 -0.028,0.023 -0.076,0.089l-0.168,0c0.042,-0.045 0.077,-0.091 0.1,-0.126c0.038,-0.002 0.05,-0.007 0.05,-0.024c0,-0.012 -0.018,-0.025 -0.14,-0.063l0.273,0c0.016,0 0.021,-0.003 0.021,-0.012c0,-0.009 -0.007,-0.019 -0.049,-0.054c-0.042,-0.035 -0.054,-0.041 -0.063,-0.041c-0.009,0 -0.028,0.023 -0.076,0.089l-0.172,0l0,-0.068c0.033,-0.009 0.04,-0.016 0.04,-0.027c0,-0.019 -0.034,-0.028 -0.169,-0.045l-0.007,0.007c0.01,0.021 0.012,0.045 0.012,0.081l0,0.052l-0.106,0c-0.106,0 -0.196,-0.002 -0.254,-0.008l0.009,0.034c0.052,-0.006 0.142,-0.008 0.245,-0.008l0.27,0Zm-0.254,0.706l0.306,-0l0,0.032c0,0.03 0.004,0.035 0.04,0.035c0.054,0 0.094,-0.022 0.094,-0.06l-0.009,-0.247l0,-0.067c0.028,-0.013 0.037,-0.021 0.037,-0.032c0,-0.011 -0.009,-0.023 -0.052,-0.056c-0.04,-0.03 -0.05,-0.036 -0.063,-0.036c-0.009,0 -0.02,0.007 -0.059,0.056l-0.274,0c-0.011,-0.011 -0.047,-0.027 -0.142,-0.051l-0.007,0.007c0.008,0.02 0.011,0.046 0.011,0.093l0,0.075l-0.008,0.289c0,0.032 0.007,0.036 0.033,0.036c0.07,0 0.093,-0.021 0.093,-0.056l0,-0.018Zm0,-0.208l0,-0.134c0.014,-0.005 0.021,-0.009 0.023,-0.015l0.283,0l0,0.149l-0.306,0Zm0,0.018l0.306,0l0,0.172l-0.306,0l0,-0.172Z" style="fill-rule:nonzero;"/></g><g transform="matrix(99,0,0,100,635.857091,1630.977698)"><path d="M0.512,-0.409c0.004,0.041 0.009,0.081 0.019,0.121c0.014,0.052 0.034,0.102 0.062,0.149c-0.079,0.096 -0.185,0.168 -0.309,0.212l0.003,0.01c0.154,-0.022 0.27,-0.067 0.361,-0.147c0.049,0.054 0.109,0.097 0.182,0.131c0.014,0.006 0.031,0.012 0.042,0.012c0.009,0 0.013,-0.004 0.021,-0.022c0.016,-0.035 0.055,-0.074 0.091,-0.099l0,-0.01c-0.1,-0.016 -0.189,-0.043 -0.262,-0.089c0.046,-0.058 0.085,-0.13 0.119,-0.216c0.038,-0.012 0.043,-0.017 0.043,-0.028c0,-0.012 -0.005,-0.021 -0.057,-0.061c-0.033,-0.026 -0.046,-0.035 -0.058,-0.035c-0.01,0 -0.021,0.013 -0.052,0.054l-0.035,0l0,-0.214l0.124,0c-0.007,0.035 -0.015,0.065 -0.04,0.127l0.009,0.005c0.049,-0.024 0.088,-0.052 0.122,-0.074c0.061,-0.003 0.071,-0.008 0.071,-0.027c0,-0.011 -0.006,-0.023 -0.052,-0.065c-0.04,-0.037 -0.055,-0.047 -0.063,-0.047c-0.009,0 -0.022,0.013 -0.063,0.063l-0.108,0l0,-0.121c0.033,-0.009 0.04,-0.016 0.04,-0.027c0,-0.019 -0.036,-0.028 -0.16,-0.045l-0.007,0.007c0.01,0.021 0.012,0.045 0.012,0.081l0,0.105l-0.081,0c-0.009,-0.009 -0.039,-0.021 -0.139,-0.046l-0.007,0.007c0.007,0.02 0.012,0.039 0.012,0.077l0,0.204c0,0.225 -0.036,0.357 -0.121,0.487l0.008,0.006c0.148,-0.106 0.214,-0.252 0.222,-0.485l0.051,0Zm-0.051,-0.018c0.001,-0.011 0.001,-0.022 0.001,-0.033l0,-0.17c0.011,-0.004 0.017,-0.007 0.021,-0.011l0.084,0l0,0.214l-0.106,0Zm0.263,0.018c-0.018,0.075 -0.046,0.143 -0.083,0.203c-0.054,-0.058 -0.09,-0.128 -0.114,-0.203l0.197,0Zm-0.695,0.214c0.065,0.03 0.069,0.045 0.069,0.092c0,0.016 -0.002,0.038 -0.005,0.06c-0.004,0.027 -0.007,0.055 -0.007,0.078c0,0.035 0.015,0.057 0.057,0.057c0.061,0 0.087,-0.038 0.087,-0.087c0,-0.033 -0.014,-0.078 -0.035,-0.127c-0.005,-0.012 -0.004,-0.023 -0.004,-0.034c0,-0.01 0.002,-0.019 0.011,-0.049c0.039,-0.136 0.069,-0.248 0.129,-0.476l-0.009,-0.004c-0.08,0.197 -0.153,0.343 -0.217,0.463c-0.009,0.017 -0.02,0.021 -0.034,0.021c-0.019,0 -0.025,0 -0.039,-0.002l-0.003,0.008Zm0.072,-0.622c0.043,0.017 0.063,0.056 0.071,0.108c0.006,0.04 0.019,0.061 0.063,0.061c0.039,0 0.066,-0.03 0.066,-0.067c0,-0.067 -0.058,-0.118 -0.197,-0.112l-0.003,0.01Zm-0.085,0.225c0.041,0.019 0.063,0.05 0.071,0.108c0.006,0.04 0.026,0.059 0.057,0.059c0.039,0 0.071,-0.021 0.071,-0.065c0,-0.067 -0.057,-0.118 -0.196,-0.112l-0.003,0.01Z" style="fill-rule:nonzero;"/></g><g transform="matrix(100,0,0,99,739.807091,1630.977698)"><path d="M0.588,-0.427c-0.064,-0.001 -0.124,-0.003 -0.18,-0.008l0.009,0.034c0.029,-0.003 0.06,-0.005 0.092,-0.006c0.01,0.098 0.04,0.191 0.092,0.275c-0.084,0.092 -0.191,0.162 -0.319,0.206l0.003,0.01c0.153,-0.018 0.273,-0.065 0.372,-0.142c0.05,0.056 0.11,0.099 0.176,0.122c0.014,0.005 0.033,0.013 0.045,0.013c0.01,0 0.016,-0.009 0.022,-0.021c0.02,-0.041 0.046,-0.07 0.084,-0.091l0,-0.01c-0.103,-0.017 -0.186,-0.044 -0.252,-0.082c0.059,-0.063 0.108,-0.139 0.15,-0.229c0.036,-0.012 0.041,-0.018 0.041,-0.029c0,-0.012 -0.006,-0.019 -0.058,-0.062c-0.035,-0.029 -0.046,-0.034 -0.058,-0.034c-0.01,0 -0.02,0.008 -0.052,0.054l-0.048,0l0,-0.184l0.249,0c0.017,0 0.023,-0.003 0.023,-0.015c0,-0.009 -0.009,-0.018 -0.05,-0.054c-0.038,-0.033 -0.046,-0.04 -0.058,-0.04c-0.009,0 -0.019,0.012 -0.074,0.091l-0.09,0l0,-0.151c0.033,-0.009 0.04,-0.016 0.04,-0.027c0,-0.019 -0.037,-0.028 -0.164,-0.045l-0.007,0.007c0.01,0.021 0.012,0.045 0.012,0.081l0,0.135c-0.047,0 -0.094,-0.001 -0.142,-0.003c-0.005,-0.006 -0.012,-0.013 -0.021,-0.022c-0.025,-0.025 -0.036,-0.035 -0.046,-0.035c-0.011,0 -0.018,0.008 -0.067,0.082l-0.007,0l0,-0.167c0.033,-0.011 0.04,-0.019 0.04,-0.032c0,-0.015 -0.038,-0.028 -0.155,-0.041l-0.007,0.007c0.009,0.016 0.012,0.036 0.012,0.093l0,0.14l-0.022,0c-0.068,0 -0.105,-0.003 -0.145,-0.008l0.009,0.034c0.037,-0.005 0.07,-0.008 0.136,-0.008l0.022,0l0,0.193c-0.026,0.008 -0.051,0.016 -0.076,0.023c-0.036,0.01 -0.064,0.017 -0.095,0.023l-0.002,0.01c0.014,0.035 0.028,0.073 0.044,0.104c0.003,0.007 0.011,0.01 0.017,0.01c0.005,0 0.013,-0.005 0.017,-0.007c0.033,-0.019 0.065,-0.038 0.095,-0.057l0,0.209c0,0.035 -0.009,0.044 -0.043,0.047c-0.031,0.003 -0.058,0.003 -0.097,0.002l0,0.011c0.082,0.026 0.092,0.044 0.098,0.085c0.003,0.022 0.004,0.026 0.031,0.026c0.061,0 0.13,-0.044 0.13,-0.106l-0.008,-0.34c0.053,-0.039 0.106,-0.082 0.158,-0.128l-0.006,-0.01c-0.051,0.022 -0.102,0.043 -0.153,0.061l0,-0.156l0.143,0c0.015,0 0.02,-0.003 0.02,-0.013c0,-0.002 0,-0.004 -0.002,-0.006c0.041,-0.003 0.081,-0.003 0.122,-0.003l0,0.184Zm0.174,0.018c-0.027,0.081 -0.065,0.154 -0.114,0.219c-0.062,-0.058 -0.1,-0.136 -0.124,-0.218c0.029,-0.001 0.058,-0.001 0.089,-0.001l0.149,0Z" style="fill-rule:nonzero;"/></g><g transform="matrix(100,0,0,101,842.307091,1630.977698)"><path d="M0.304,0.09c0.174,-0.059 0.261,-0.164 0.294,-0.271c0.023,-0.076 0.032,-0.159 0.034,-0.273l0.079,0l0,0.078l-0.005,0.436c0,0.027 0.006,0.031 0.038,0.031c0.059,0 0.094,-0.008 0.094,-0.052l-0.011,-0.417l0,-0.076l0.136,0c0.015,0 0.02,-0.003 0.02,-0.013c0,-0.009 -0.005,-0.02 -0.04,-0.059c-0.026,-0.028 -0.037,-0.035 -0.047,-0.035c-0.009,0 -0.02,0.014 -0.063,0.089l-0.006,0l0,-0.257c0.018,-0.004 0.026,-0.011 0.028,-0.024l0.073,0c0.017,0 0.023,-0.006 0.023,-0.015c0,-0.011 -0.006,-0.019 -0.048,-0.053c-0.036,-0.029 -0.048,-0.035 -0.058,-0.035c-0.009,0 -0.019,0.012 -0.07,0.085l-0.142,0c-0.064,0 -0.127,-0.001 -0.185,-0.006c-0.007,-0.006 -0.015,-0.013 -0.025,-0.022c-0.032,-0.028 -0.045,-0.034 -0.052,-0.034c-0.007,0 -0.024,0.013 -0.072,0.081l-0.055,0c-0.101,0 -0.155,-0.002 -0.208,-0.008l0.009,0.034c0.035,-0.004 0.071,-0.007 0.128,-0.008c-0.014,0.18 -0.064,0.372 -0.158,0.511l0.008,0.006c0.037,-0.032 0.07,-0.068 0.1,-0.106l-0.01,0.302c0,0.025 0.005,0.029 0.032,0.029c0.055,0 0.077,-0.009 0.077,-0.056l0,-0.064l0.071,0l0,0.033c0,0.024 0.004,0.028 0.033,0.028c0.044,0 0.078,-0.011 0.078,-0.058l-0.005,-0.188l0,-0.129c0.018,-0.01 0.029,-0.016 0.03,-0.025c0.03,-0.002 0.059,-0.002 0.089,-0.003c-0.001,0.099 -0.005,0.178 -0.019,0.249c-0.015,0.081 -0.065,0.206 -0.201,0.286l0.006,0.009Zm0.214,-0.562c-0.035,-0.001 -0.069,-0.001 -0.103,-0.003c-0.006,-0.006 -0.014,-0.013 -0.025,-0.021c-0.029,-0.023 -0.047,-0.03 -0.056,-0.03c-0.01,0 -0.017,0.007 -0.05,0.047l-0.042,0c-0.006,-0.005 -0.013,-0.008 -0.02,-0.011c0.031,-0.069 0.054,-0.144 0.07,-0.22c0.016,-0.004 0.023,-0.007 0.025,-0.024l0.132,0c0.015,0 0.02,-0.003 0.02,-0.014c0.016,-0.001 0.033,-0.002 0.049,-0.003l0,0.279Zm0.193,-0.281l0,0.281l-0.078,0l0,-0.257c0.016,-0.004 0.024,-0.011 0.027,-0.024l0.051,0Zm-0.489,0.623l0,-0.322c0.008,-0.003 0.014,-0.006 0.018,-0.009l0.053,0l0,0.331l-0.071,0Z" style="fill-rule:nonzero;"/></g></g></svg>