<?xml version="1.0" encoding="UTF-8" standalone="no"?><!DOCTYPE svg PUBLIC "-//W3C//DTD SVG 1.1//EN" "http://www.w3.org/Graphics/SVG/1.1/DTD/svg11.dtd"><svg width="100%" height="100%" viewBox="0 0 1000 200" version="1.1" xmlns="http://www.w3.org/2000/svg" xmlns:xlink="http://www.w3.org/1999/xlink" xml:space="preserve" xmlns:serif="http://www.serif.com/" style="fill-rule:evenodd;clip-rule:evenodd;stroke-linejoin:round;stroke-miterlimit:1.5;"><rect id="Artboard1" x="0" y="-0" width="1000" height="200" style="fill:none;"/><g><g><circle id="outermost-circle" serif:id="outermost circle" cx="130" cy="100" r="90" style="fill:#ebebeb;fill-opacity:0;"/><path d="M130,10c49.672,0 90,40.328 90,90c0,49.672 -40.328,90 -90,90c-49.672,0 -90,-40.328 -90,-90c0,-49.672 40.328,-90 90,-90Zm0,2.083c-48.523,0 -87.917,39.394 -87.917,87.917c0,48.523 39.394,87.917 87.917,87.917c48.523,0 87.917,-39.394 87.917,-87.917c0,-48.523 -39.394,-87.917 -87.917,-87.917Z"/><circle id="second-circle" serif:id="second circle" cx="130" cy="100" r="85" style="fill:#ebebeb;fill-opacity:0;"/><path d="M130,15c46.913,0 85,38.087 85,85c0,46.913 -38.087,85 -85,85c-46.913,0 -85,-38.087 -85,-85c0,-46.913 38.087,-85 85,-85Zm0,3.333c-45.073,0 -81.667,36.594 -81.667,81.667c0,45.073 36.594,81.667 81.667,81.667c45.073,0 81.667,-36.594 81.667,-81.667c0,-45.073 -36.594,-81.667 -81.667,-81.667Z"/></g><g><path d="M59.643,99.823c1.706,-10.056 5.119,-30.168 9.138,-25.136c4.019,5.033 9.472,59.632 14.975,55.332c5.504,-4.3 11.768,-86.127 18.046,-81.133c6.278,4.994 13.014,112.558 19.622,111.098c6.608,-1.459 13.14,-115.756 20.025,-119.855c6.885,-4.099 14.838,89.868 21.285,95.259c6.447,5.391 12.362,-60.757 17.395,-62.912c5.033,-2.154 9.433,45.376 12.804,49.987c3.371,4.611 7.424,-22.322 7.424,-22.322" style="fill:none;stroke:#000;stroke-width:2.5px;"/><path d="M60.729,100.566l-2.172,-1.238c1.081,-1.896 2.833,-4.914 4.96,-6.696c1.709,-1.432 3.655,-2.1 5.701,-1.337c0.883,0.329 1.865,1.192 2.851,2.457c1.898,2.435 4.009,6.455 6.224,9.658c0.974,1.408 1.961,2.653 2.97,3.479c0.741,0.606 1.459,1.002 2.21,0.827c0.463,-0.108 0.903,-0.492 1.38,-1.006c0.633,-0.682 1.27,-1.597 1.92,-2.66c2.088,-3.418 4.248,-8.298 6.45,-12.369c1.558,-2.878 3.157,-5.359 4.741,-6.76c1.36,-1.202 2.76,-1.674 4.125,-1.351c1.352,0.32 2.824,1.717 4.208,3.964c2.722,4.422 5.518,12.256 8.322,18.802c1.536,3.586 3.063,6.776 4.603,8.711c0.436,0.548 0.864,0.987 1.3,1.273c0.277,0.182 0.543,0.302 0.819,0.284c0.406,-0.027 0.78,-0.316 1.186,-0.715c0.595,-0.585 1.183,-1.419 1.777,-2.431c1.951,-3.317 3.895,-8.439 5.859,-13.593c2.366,-6.21 4.769,-12.46 7.189,-15.87c1.259,-1.774 2.6,-2.82 3.877,-3.046c1.436,-0.254 2.955,0.349 4.448,1.746c1.791,1.676 3.64,4.557 5.474,7.87c2.626,4.745 5.254,10.39 7.77,14.353c0.942,1.484 1.859,2.724 2.76,3.55c0.465,0.427 0.906,0.739 1.353,0.85c0.924,0.23 1.798,-0.249 2.689,-1.008c1.784,-1.52 3.497,-4.193 5.168,-6.947c2.094,-3.45 4.115,-7.031 6.016,-8.988c1.033,-1.063 2.08,-1.682 3.062,-1.807c1.099,-0.14 2.188,0.192 3.241,0.929c1.263,0.885 2.502,2.404 3.671,4.177c1.608,2.439 3.115,5.367 4.499,7.502c0.747,1.151 1.377,2.082 2.033,2.356c0.346,0.145 0.703,0.057 1.058,-0.108c0.567,-0.264 1.115,-0.73 1.633,-1.264c1.777,-1.831 3.141,-4.479 3.141,-4.479l2.221,1.148c0,-0 -2.153,4.117 -4.678,6.076c-1.402,1.088 -2.929,1.523 -4.338,0.934c-0.76,-0.317 -1.605,-1.103 -2.445,-2.25c-1.576,-2.151 -3.324,-5.678 -5.211,-8.538c-0.824,-1.25 -1.669,-2.367 -2.549,-3.135c-0.646,-0.564 -1.278,-0.954 -1.96,-0.867c-0.393,0.05 -0.771,0.319 -1.18,0.68c-0.571,0.504 -1.148,1.198 -1.74,2.011c-1.948,2.673 -3.997,6.555 -6.134,9.771c-1.537,2.313 -3.139,4.285 -4.754,5.361c-1.326,0.883 -2.683,1.212 -4.047,0.873c-1.364,-0.34 -2.853,-1.605 -4.314,-3.572c-2.926,-3.939 -6.048,-10.785 -9.153,-16.396c-1.684,-3.043 -3.348,-5.715 -4.994,-7.254c-0.799,-0.748 -1.536,-1.247 -2.304,-1.11c-0.409,0.072 -0.795,0.355 -1.201,0.747c-0.552,0.532 -1.095,1.264 -1.642,2.143c-2.815,4.521 -5.568,12.686 -8.317,19.619c-1.916,4.832 -3.855,9.079 -5.765,11.262c-1.061,1.212 -2.172,1.847 -3.235,1.917c-1.38,0.091 -2.854,-0.754 -4.239,-2.494c-1.644,-2.066 -3.305,-5.455 -4.945,-9.284c-2.754,-6.43 -5.479,-14.133 -8.153,-18.476c-0.522,-0.848 -1.036,-1.559 -1.553,-2.085c-0.377,-0.384 -0.73,-0.669 -1.102,-0.757c-0.645,-0.153 -1.251,0.222 -1.893,0.791c-1.418,1.253 -2.805,3.502 -4.199,6.077c-2.608,4.818 -5.169,10.75 -7.61,14.144c-1.26,1.752 -2.568,2.856 -3.773,3.136c-1.198,0.279 -2.405,-0.003 -3.591,-0.766c-1.42,-0.913 -2.846,-2.579 -4.212,-4.553c-1.887,-2.729 -3.697,-6.057 -5.363,-8.476c-0.925,-1.343 -1.726,-2.42 -2.529,-2.719c-1.17,-0.436 -2.245,0.092 -3.222,0.911c-1.902,1.593 -3.427,4.322 -4.394,6.017Z"/><path d="M53.956,101.042l0,-2.083l152.089,0l0,2.083l-152.089,0Z"/></g></g><g transform="matrix(1,0,0,1,19.392909,-1492.349698)"><g transform="matrix(1.01,0,0,1.01,-2.243121,-16.309777)"><text x="224.312px" y="1630.978px" style="font-family:'ToppanBunkyuMidashiMinchoStdN-ExtraBold', 'Toppan Bunkyu Midashi Mincho', serif;font-weight:900;font-size:100px;">五</text></g><text x="326.827px" y="1630.978px" style="font-family:'ToppanBunkyuMidashiMinchoStdN-ExtraBold', 'Toppan Bunkyu Midashi Mincho', serif;font-weight:900;font-size:100px;">反</text><g transform="matrix(1.02,0,0,1.02,-8.566542,-32.619554)"><text x="428.327px" y="1630.978px" style="font-family:'ToppanBunkyuMidashiMinchoStdN-ExtraBold', 'Toppan Bunkyu Midashi Mincho', serif;font-weight:900;font-size:100px;">田</text></g><text x="531.857px" y="1630.978px" style="font-family:'ToppanBunkyuMidashiMinchoStdN-ExtraBold', 'Toppan Bunkyu Midashi Mincho', serif;font-weight:900;font-size:100px;">音</text><g transform="matrix(0.99,0,0,1,6.358571,0)"><text x="635.857px" y="1630.978px" style="font-family:'ToppanBunkyuMidashiMinchoStdN-ExtraBold', 'Toppan Bunkyu Midashi Mincho', serif;font-weight:900;font-size:100px;">波</text></g><g transform="matrix(1,0,0,0.99,0,16.309777)"><text x="739.807px" y="1630.978px" style="font-family:'ToppanBunkyuMidashiMinchoStdN-ExtraBold', 'Toppan Bunkyu Midashi Mincho', serif;font-weight:900;font-size:100px;">技</text></g><g transform="matrix(1,0,0,1.01,0,-16.309777)"><g transform="matrix(100,0,0,100,942.307091,1630.977698)"></g><text x="842.307px" y="1630.978px" style="font-family:'ToppanBunkyuMidashiMinchoStdN-ExtraBold', 'Toppan Bunkyu Midashi Mincho', serif;font-weight:900;font-size:100px;">研</text></g></g></svg>