<?xml version="1.0" encoding="UTF-8" standalone="no"?><!DOCTYPE svg PUBLIC "-//W3C//DTD SVG 1.1//EN" "http://www.w3.org/Graphics/SVG/1.1/DTD/svg11.dtd"><svg width="100%" height="100%" viewBox="0 0 800 800" version="1.1" xmlns="http://www.w3.org/2000/svg" xmlns:xlink="http://www.w3.org/1999/xlink" xml:space="preserve" xmlns:serif="http://www.serif.com/" style="fill-rule:evenodd;clip-rule:evenodd;stroke-linejoin:round;stroke-miterlimit:1.5;"><rect id="_1000" serif:id="1000" x="-100" y="-100" width="1000" height="1000" style="fill:none;"/><g id="_10001" serif:id="1000"><g><circle id="outermost-circle" serif:id="outermost circle" cx="400" cy="400" r="400" style="fill:#ebebeb;fill-opacity:0;"/><path d="M400,0c220.766,0 400,179.234 400,400c0,220.766 -179.234,400 -400,400c-220.766,0 -400,-179.234 -400,-400c0,-220.766 179.234,-400 400,-400Zm0,4.167c-218.466,0 -395.833,177.367 -395.833,395.833c0,218.466 177.367,395.833 395.833,395.833c218.466,0 395.833,-177.367 395.833,-395.833c0,-218.466 -177.367,-395.833 -395.833,-395.833Z"/><circle id="second-circle" serif:id="second circle" cx="400" cy="400" r="390" style="fill:#ebebeb;fill-opacity:0;"/><path d="M400,10c215.247,0 390,174.753 390,390c0,215.247 -174.753,390 -390,390c-215.247,0 -390,-174.753 -390,-390c0,-215.247 174.753,-390 390,-390Zm0,8.333c-210.648,0 -381.667,171.019 -381.667,381.667c0,210.648 171.019,381.667 381.667,381.667c210.648,0 381.667,-171.019 381.667,-381.667c0,-210.648 -171.019,-381.667 -381.667,-381.667Z"/><g><path d="M203,399.505c4.778,-28.157 14.334,-84.471 25.587,-70.38c11.253,14.092 26.52,166.97 41.93,154.93c15.41,-12.04 32.951,-241.155 50.529,-227.171c17.578,13.984 36.44,315.162 54.942,311.075c18.502,-4.086 36.791,-324.116 56.069,-335.594c19.278,-11.478 41.547,251.63 59.598,266.725c18.051,15.095 34.614,-170.121 48.706,-176.152c14.093,-6.032 26.412,127.053 35.851,139.963c9.44,12.91 20.787,-62.5 20.787,-62.5" style="fill:none;stroke:#000;stroke-width:5.42px;"/><path d="M205.715,401.4l-5.429,-3.096c3.01,-5.279 7.88,-13.685 13.803,-18.646c4.677,-3.917 9.993,-5.766 15.59,-3.68c2.423,0.903 5.11,3.285 7.818,6.76c5.31,6.814 11.217,18.064 17.416,27.026c2.75,3.976 5.539,7.487 8.386,9.817c2.178,1.782 4.303,2.905 6.511,2.392c1.355,-0.315 2.656,-1.421 4.054,-2.927c1.787,-1.924 3.588,-4.507 5.422,-7.509c5.848,-9.574 11.9,-23.247 18.071,-34.649c4.337,-8.013 8.782,-14.924 13.194,-18.825c3.7,-3.271 7.502,-4.577 11.216,-3.698c3.718,0.88 7.744,4.749 11.549,10.93c7.615,12.371 15.432,34.285 23.276,52.598c4.317,10.078 8.613,19.039 12.941,24.478c1.249,1.57 2.479,2.824 3.726,3.644c0.851,0.559 1.677,0.911 2.525,0.855c1.214,-0.08 2.347,-0.918 3.559,-2.11c1.686,-1.658 3.352,-4.018 5.037,-6.883c5.471,-9.301 10.924,-23.664 16.432,-38.117c6.613,-17.354 13.323,-34.824 20.085,-44.352c3.453,-4.865 7.114,-7.756 10.615,-8.377c3.92,-0.695 8.056,0.981 12.133,4.794c4.994,4.671 10.144,12.708 15.254,21.943c7.356,13.293 14.719,29.107 21.768,40.208c2.659,4.188 5.248,7.683 7.791,10.014c1.356,1.244 2.649,2.144 3.952,2.468c2.696,0.671 5.261,-0.685 7.863,-2.901c5.02,-4.277 9.845,-11.792 14.548,-19.543c4.974,-8.196 9.781,-16.669 14.366,-22.341c3.644,-4.509 7.365,-7.274 10.78,-7.708c2.989,-0.381 5.949,0.531 8.812,2.536c3.505,2.455 6.936,6.675 10.181,11.596c4.503,6.828 8.72,15.025 12.596,21.002c2.143,3.305 3.98,5.953 5.861,6.738c1.068,0.446 2.17,0.2 3.264,-0.309c1.624,-0.755 3.199,-2.089 4.684,-3.619c5.011,-5.164 8.859,-12.63 8.859,-12.63l5.552,2.87c0,0 -5.978,11.445 -12.995,16.889c-3.807,2.954 -7.946,4.164 -11.773,2.566c-2.081,-0.869 -4.386,-3.032 -6.688,-6.175c-4.409,-6.02 -9.301,-15.89 -14.579,-23.892c-2.328,-3.53 -4.717,-6.684 -7.202,-8.855c-1.9,-1.66 -3.776,-2.774 -5.783,-2.518c-1.163,0.148 -2.293,0.927 -3.504,1.996c-1.615,1.428 -3.25,3.391 -4.926,5.69c-5.457,7.488 -11.197,18.364 -17.185,27.373c-4.272,6.427 -8.719,11.917 -13.208,14.907c-3.616,2.409 -7.315,3.317 -11.034,2.391c-3.759,-0.936 -7.842,-4.442 -11.869,-9.862c-8.186,-11.018 -16.914,-30.17 -25.6,-45.866c-4.738,-8.562 -9.425,-16.074 -14.055,-20.404c-2.342,-2.19 -4.522,-3.604 -6.774,-3.205c-1.209,0.214 -2.359,1.034 -3.557,2.19c-1.563,1.508 -3.105,3.58 -4.656,6.071c-7.89,12.672 -15.611,35.56 -23.319,54.994c-5.347,13.481 -10.746,25.333 -16.076,31.426c-2.889,3.302 -5.906,5.049 -8.8,5.239c-3.766,0.248 -7.771,-2.093 -11.552,-6.844c-4.588,-5.766 -9.219,-15.225 -13.795,-25.909c-7.719,-18.021 -15.359,-39.608 -22.853,-51.782c-1.478,-2.401 -2.937,-4.414 -4.4,-5.903c-1.114,-1.134 -2.166,-1.96 -3.267,-2.221c-1.914,-0.453 -3.729,0.612 -5.636,2.298c-3.994,3.532 -7.912,9.863 -11.838,17.117c-7.294,13.477 -14.456,30.069 -21.282,39.563c-3.46,4.812 -7.036,7.866 -10.346,8.635c-3.258,0.758 -6.539,-0.02 -9.767,-2.094c-3.944,-2.534 -7.895,-7.165 -11.687,-12.647c-5.285,-7.641 -10.35,-16.958 -15.016,-23.733c-2.646,-3.842 -4.962,-6.895 -7.26,-7.752c-3.407,-1.27 -6.547,0.231 -9.394,2.615c-5.36,4.49 -9.663,12.173 -12.387,16.951Z"/><path d="M187.909,402.083l0,-4.167l424.182,0l0,4.167l-424.182,-0Z"/></g></g><g id="五反田音響波動技術研究所"><g id="五" transform="matrix(0.707107,-0.707107,0.707107,0.707107,-349.680917,-143.992277)"><g transform="matrix(100,0,0,100,194.943832,655.365088)"></g><text x="94.944px" y="655.365px" style="font-family:'ToppanBunkyuMidashiMinchoStdN-ExtraBold', 'Toppan Bunkyu Midashi Mincho', serif;font-weight:900;font-size:100px;">五</text></g><g transform="matrix(0.965926,-0.258819,0.258819,0.965926,-2.832399,-58.519398)"><g transform="matrix(100,0,0,100,319.932665,286.756426)"></g><text x="219.933px" y="286.756px" style="font-family:'ToppanBunkyuMidashiMinchoStdN-ExtraBold', 'Toppan Bunkyu Midashi Mincho', serif;font-weight:900;font-size:100px;">反</text></g><g transform="matrix(0.965926,0.258819,-0.258819,0.965926,-68.629529,-27.240413)"><g transform="matrix(100,0,0,100,612.73932,30.992302)"></g><text x="512.739px" y="30.992px" style="font-family:'ToppanBunkyuMidashiMinchoStdN-ExtraBold', 'Toppan Bunkyu Midashi Mincho', serif;font-weight:900;font-size:100px;">田</text></g><g id="音" transform="matrix(0.707107,0.707107,-0.707107,0.707107,-115.057982,-420.9487)"><g transform="matrix(100,0,0,100,994.199384,-44.102599)"></g><text x="894.199px" y="-44.103px" style="font-family:'ToppanBunkyuMidashiMinchoStdN-ExtraBold', 'Toppan Bunkyu Midashi Mincho', serif;font-weight:900;font-size:100px;">音</text></g><g transform="matrix(0.258819,0.965926,-0.965926,0.258819,390.614079,-956.389538)"><g transform="matrix(100,0,0,100,1362.10094,81.593341)"></g><text x="1262.101px" y="81.593px" style="font-family:'ToppanBunkyuMidashiMinchoStdN-ExtraBold', 'Toppan Bunkyu Midashi Mincho', serif;font-weight:900;font-size:100px;">響</text></g><g transform="matrix(-0.258819,0.965926,-0.965926,-0.258819,1419.092459,-950.625991)"><g transform="matrix(100,0,0,100,1617.865064,374.399996)"></g><text x="1517.865px" y="374.4px" style="font-family:'ToppanBunkyuMidashiMinchoStdN-ExtraBold', 'Toppan Bunkyu Midashi Mincho', serif;font-weight:900;font-size:100px;">波</text></g><g transform="matrix(-0.707107,0.707107,-0.707107,-0.707107,2280.706065,-43.497306)"><g transform="matrix(100,0,0,100,1692.959965,755.86006)"></g><text x="1592.96px" y="755.86px" style="font-family:'ToppanBunkyuMidashiMinchoStdN-ExtraBold', 'Toppan Bunkyu Midashi Mincho', serif;font-weight:900;font-size:100px;">動</text></g><g transform="matrix(-0.965926,0.258819,-0.258819,-0.965926,2224.294857,1344.171217)"><g transform="matrix(100,0,0,100,1567.264025,1123.761616)"></g><text x="1467.264px" y="1123.762px" style="font-family:'ToppanBunkyuMidashiMinchoStdN-ExtraBold', 'Toppan Bunkyu Midashi Mincho', serif;font-weight:900;font-size:100px;">技</text></g><g transform="matrix(-0.965926,-0.258819,0.258819,-0.965926,1158.773945,2301.088922)"><g transform="matrix(100,0,0,100,1274.457369,1379.52574)"></g><text x="1174.457px" y="1379.526px" style="font-family:'ToppanBunkyuMidashiMinchoStdN-ExtraBold', 'Toppan Bunkyu Midashi Mincho', serif;font-weight:900;font-size:100px;">術</text></g><g transform="matrix(-0.707107,-0.707107,0.707107,-0.707107,-216.26006,2209.14539)"><g transform="matrix(100,0,0,100,892.997306,1454.62064)"></g><text x="792.997px" y="1454.621px" style="font-family:'ToppanBunkyuMidashiMinchoStdN-ExtraBold', 'Toppan Bunkyu Midashi Mincho', serif;font-weight:900;font-size:100px;">研</text></g><g transform="matrix(-0.258819,-0.965926,0.965926,-0.258819,-1012.076537,1270.737719)"><g transform="matrix(100,0,0,100,525.09575,1328.9247)"></g><text x="425.096px" y="1328.925px" style="font-family:'ToppanBunkyuMidashiMinchoStdN-ExtraBold', 'Toppan Bunkyu Midashi Mincho', serif;font-weight:900;font-size:100px;">究</text></g><g transform="matrix(0.258819,-0.965926,0.965926,0.258819,-909.236876,276.777483)"><g transform="matrix(100,0,0,100,269.331626,1036.118045)"></g><text x="169.332px" y="1036.118px" style="font-family:'ToppanBunkyuMidashiMinchoStdN-ExtraBold', 'Toppan Bunkyu Midashi Mincho', serif;font-weight:900;font-size:100px;">所</text></g></g></g></svg>