<?xml version="1.0" encoding="UTF-8" standalone="no"?><!DOCTYPE svg PUBLIC "-//W3C//DTD SVG 1.1//EN" "http://www.w3.org/Graphics/SVG/1.1/DTD/svg11.dtd"><svg width="100%" height="100%" viewBox="0 0 460 460" version="1.1" xmlns="http://www.w3.org/2000/svg" xmlns:xlink="http://www.w3.org/1999/xlink" xml:space="preserve" xmlns:serif="http://www.serif.com/" style="fill-rule:evenodd;clip-rule:evenodd;stroke-linejoin:round;stroke-miterlimit:1.5;"><rect id="_512" serif:id="512" x="-26" y="-26" width="512" height="512" style="fill:none;"/><g><g><circle id="outermost-circle" serif:id="outermost circle" cx="230" cy="230" r="230" style="fill:#ebebeb;fill-opacity:0;"/><path d="M230,-0c126.94,0 230,103.06 230,230c0,126.94 -103.06,230 -230,230c-126.94,0 -230,-103.06 -230,-230c0,-126.94 103.06,-230 230,-230Zm0,2.662c-125.471,0 -227.338,101.867 -227.338,227.338c0,125.471 101.867,227.338 227.338,227.338c125.471,0 227.338,-101.867 227.338,-227.338c0,-125.471 -101.867,-227.338 -227.338,-227.338Z"/><circle id="second-circle" serif:id="second circle" cx="230" cy="230" r="217.222" style="fill:#ebebeb;fill-opacity:0;"/><path d="M230,12.778c119.888,0 217.222,97.334 217.222,217.222c0,119.888 -97.334,217.222 -217.222,217.222c-119.888,0 -217.222,-97.334 -217.222,-217.222c0,-119.888 97.334,-217.222 217.222,-217.222Zm0,5.157c-117.042,0 -212.065,95.023 -212.065,212.065c0,117.042 95.023,212.065 212.065,212.065c117.042,0 212.065,-95.023 212.065,-212.065c0,-117.042 -95.023,-212.065 -212.065,-212.065Z"/></g><g><path d="M50.198,229.548c4.361,-25.699 13.083,-77.097 23.353,-64.235c10.27,12.861 24.205,152.393 38.27,141.404c14.065,-10.989 30.074,-220.102 46.118,-207.339c16.044,12.763 33.259,287.648 50.145,283.918c16.887,-3.73 33.579,-295.82 51.174,-306.296c17.595,-10.476 37.92,229.662 54.395,243.44c16.475,13.778 31.592,-155.269 44.454,-160.774c12.863,-5.505 24.106,115.961 32.722,127.744c8.616,11.783 18.973,-57.044 18.973,-57.044" style="fill:none;stroke:#000;stroke-width:4.94px;"/><path d="M52.676,231.278l-4.955,-2.825c2.747,-4.818 7.192,-12.49 12.598,-17.018c4.268,-3.575 9.12,-5.263 14.229,-3.359c2.212,0.824 4.664,2.998 7.135,6.17c4.846,6.22 10.238,16.487 15.895,24.666c2.51,3.629 5.056,6.834 7.654,8.96c1.988,1.626 3.927,2.652 5.943,2.183c1.237,-0.288 2.424,-1.297 3.7,-2.671c1.631,-1.756 3.275,-4.113 4.948,-6.853c5.337,-8.738 10.861,-21.217 16.494,-31.624c3.958,-7.313 8.016,-13.621 12.042,-17.181c3.377,-2.986 6.847,-4.177 10.237,-3.375c3.394,0.804 7.068,4.334 10.541,9.976c6.95,11.291 14.085,31.292 21.244,48.006c3.94,9.198 7.861,17.377 11.811,22.341c1.14,1.433 2.262,2.577 3.401,3.326c0.776,0.51 1.53,0.832 2.305,0.781c1.108,-0.073 2.142,-0.838 3.249,-1.926c1.539,-1.513 3.059,-3.667 4.597,-6.282c4.993,-8.489 9.97,-21.598 14.997,-34.789c6.036,-15.839 12.159,-31.783 18.331,-40.48c3.151,-4.44 6.493,-7.079 9.689,-7.646c3.578,-0.634 7.353,0.895 11.074,4.376c4.558,4.263 9.258,11.599 13.922,20.027c6.714,12.132 13.434,26.566 19.868,36.698c2.427,3.823 4.79,7.013 7.111,9.14c1.238,1.135 2.418,1.957 3.607,2.253c2.461,0.612 4.802,-0.625 7.176,-2.648c4.582,-3.903 8.985,-10.763 13.278,-17.837c4.539,-7.48 8.927,-15.214 13.112,-20.391c3.326,-4.115 6.722,-6.639 9.839,-7.035c2.728,-0.347 5.43,0.485 8.042,2.315c3.199,2.241 6.331,6.092 9.292,10.583c4.11,6.232 7.958,13.714 11.497,19.169c1.956,3.016 3.633,5.433 5.349,6.15c0.974,0.407 1.981,0.183 2.979,-0.282c1.482,-0.69 2.92,-1.907 4.275,-3.303c4.573,-4.713 8.086,-11.527 8.086,-11.527l5.067,2.62c0,0 -5.456,10.446 -11.86,15.414c-3.475,2.696 -7.252,3.8 -10.745,2.342c-1.899,-0.793 -4.003,-2.767 -6.104,-5.636c-4.024,-5.495 -8.489,-14.503 -13.306,-21.806c-2.125,-3.222 -4.305,-6.1 -6.573,-8.082c-1.734,-1.515 -3.446,-2.532 -5.278,-2.298c-1.061,0.135 -2.093,0.846 -3.198,1.822c-1.474,1.303 -2.966,3.095 -4.496,5.194c-4.981,6.834 -10.22,16.761 -15.685,24.983c-3.899,5.866 -7.958,10.876 -12.054,13.606c-3.3,2.199 -6.676,3.027 -10.07,2.183c-3.431,-0.854 -7.158,-4.054 -10.833,-9.001c-7.471,-10.056 -15.438,-27.536 -23.365,-41.862c-4.324,-7.814 -8.602,-14.67 -12.828,-18.623c-2.138,-1.999 -4.127,-3.289 -6.182,-2.925c-1.103,0.195 -2.153,0.944 -3.247,1.999c-1.427,1.377 -2.834,3.268 -4.25,5.541c-7.201,11.566 -14.248,32.456 -21.283,50.193c-4.88,12.304 -9.807,23.122 -14.673,28.682c-2.637,3.013 -5.391,4.608 -8.032,4.782c-3.437,0.226 -7.093,-1.91 -10.543,-6.246c-4.188,-5.262 -8.414,-13.896 -12.591,-23.647c-7.045,-16.447 -14.018,-36.151 -20.858,-47.261c-1.349,-2.192 -2.681,-4.029 -4.016,-5.388c-1.017,-1.035 -1.977,-1.789 -2.981,-2.027c-1.747,-0.414 -3.404,0.559 -5.144,2.097c-3.646,3.223 -7.221,9.002 -10.804,15.623c-6.657,12.301 -13.194,27.444 -19.424,36.109c-3.158,4.392 -6.421,7.179 -9.442,7.882c-2.974,0.692 -5.969,-0.018 -8.914,-1.911c-3.599,-2.313 -7.206,-6.539 -10.666,-11.543c-4.823,-6.974 -9.447,-15.478 -13.705,-21.661c-2.415,-3.507 -4.529,-6.293 -6.626,-7.075c-3.11,-1.159 -5.975,0.21 -8.574,2.387c-4.892,4.098 -8.82,11.111 -11.306,15.471Z"/><path d="M36.425,231.901l0,-3.803l387.15,0l0,3.803l-387.15,0Z"/></g></g></svg>